M48
;Layer_Color=9474304
;FILE_FORMAT=4:2
METRIC,LZ
;TYPE=PLATED
T1F00S00C0.70
T2F00S00C0.80
T3F00S00C0.85
T4F00S00C0.90
T5F00S00C1.20
T6F00S00C3.00
%
T01
X012179Y000851
X013907Y000902
Y001664
X012179Y001613
T02
X015763Y000665
X016017
X01664Y003256
X016894
X014658
X014404
X012322
X012068
X010036
X009782
X00775
X007496
X005464
X00521
X003127
X002873
X000841
X000587
T03
X018288Y003302
X017272
X016002
X014986
X013665
X015583Y001524
X016599
X012649Y003302
X01143
X010414
X009144
X008128
X006858
X005842
X004521
X003505
X002235
X001219
T04
X008522Y000673
X008776
X00903
X009284
Y001156
X00903
X008776
X008522
X009538
X009792
X010046
X0103
X010554
Y000673
X0103
X010046
X009792
X009538
X010808
X015075Y00108
Y001334
X010554Y001918
X0103
X010046
X009792
X009538
X009284
X00903
X008776
X008522
X00127Y006452
X001016
X001524
X003302Y006502
X003556
X00381
X005588
X005842
X006096
X007874
X008128
X008382
X01016
X010414
X010668
X012446
X0127
X012954
X014732
X014986
X01524
X017018
X017272
X017526
T05
X017872Y004367
X017272Y004167
X016672Y004367
X015586
X014986Y004167
X014386Y004367
X0133
X0127Y004167
X0121Y004367
X011014
X010414Y004167
X009814Y004367
X008728
X008128Y004167
X007528Y004367
X006442
X005842Y004167
X005242Y004367
X004156
X003556Y004167
X002956Y004367
X00187
X00127Y004167
X00067Y004367
Y005587
X00187
X002956
X004156
X005242
X006442
X007528
X008728
X009814
X011014
X0121
X0133
X014386
X015586
X016672
X017872
T06
X00035Y00035
X018205
X00035Y006838
X018205
M30
