%FSLAX42Y42*%
%MOMM*%
G71*
G01*
G75*
G04 Layer_Physical_Order=2*
G04 Layer_Color=16711680*
%ADD10C,0.75*%
%ADD11C,0.25*%
%ADD12C,1.52*%
%ADD13C,1.40*%
%ADD14R,1.60X2.20*%
%ADD15O,1.60X2.20*%
%ADD16R,1.50X1.50*%
%ADD17C,1.50*%
%ADD18C,3.00*%
%ADD19C,2.80*%
%ADD20C,1.20*%
%ADD21R,1.20X1.20*%
%ADD22R,1.50X1.50*%
%ADD23R,1.50X1.50*%
%ADD24C,1.50*%
%ADD25C,2.00*%
D10*
X17272Y3302D02*
Y3480D01*
Y3010D02*
Y3302D01*
X17145Y3607D02*
X17272Y3480D01*
X16840Y3607D02*
X17145D01*
X16672Y3775D02*
X16840Y3607D01*
X16672Y3775D02*
Y4367D01*
X17094Y2832D02*
X17272Y3010D01*
X16472Y2832D02*
X17094D01*
X16002Y3302D02*
X16472Y2832D01*
X14415Y3238D02*
Y3467D01*
X14529Y3581D01*
X15443D01*
X15586Y3724D01*
Y4367D01*
X14986Y3302D02*
X14999D01*
X14704D02*
X14986D01*
X14658Y3256D02*
X14704Y3302D01*
X15075Y1321D02*
X15278Y1524D01*
X15583D02*
Y2273D01*
X16002Y2692D01*
Y3302D01*
X13907Y1651D02*
X13919Y1664D01*
X13907Y1651D02*
X14745D01*
X13894Y1664D02*
Y2248D01*
X14745Y1651D02*
X15075Y1321D01*
X13894Y1651D02*
X13907D01*
X13868Y1613D02*
X13907Y1651D01*
X13665Y2476D02*
X13894Y2248D01*
X13665Y2476D02*
Y3302D01*
X12179Y1613D02*
X13868D01*
X11430Y2350D02*
X12167Y1613D01*
X12179Y1600D01*
X12167Y1613D02*
X12179D01*
X11290D02*
X12167D01*
X10820Y673D02*
Y1143D01*
X11430Y2350D02*
Y3302D01*
X13665D02*
Y3646D01*
Y3289D02*
Y3302D01*
Y3646D02*
X14386Y4367D01*
X12078Y3238D02*
Y3467D01*
X12205Y3594D01*
X13132D01*
X13300Y3762D01*
Y4367D01*
X12578Y3256D02*
X12636Y3315D01*
X12322Y3256D02*
X12578D01*
X11430Y3302D02*
Y3697D01*
X12100Y4367D01*
X10368Y3256D02*
X10414Y3302D01*
X10036Y3256D02*
X10368D01*
X9538Y1918D02*
Y3012D01*
X9782Y3256D01*
X9792Y3264D02*
Y3505D01*
X9982Y3696D01*
X10871D01*
X11014Y3838D01*
Y4367D01*
X9144Y3302D02*
Y3697D01*
X9814Y4367D01*
X9144Y3302D02*
Y3315D01*
Y3073D02*
Y3302D01*
X8941Y2870D02*
X9144Y3073D01*
X7163Y2870D02*
X8941D01*
X6858Y3175D02*
X7163Y2870D01*
X6858Y3175D02*
Y3302D01*
X8082Y3256D02*
X8128Y3302D01*
X7750Y3256D02*
X8082D01*
X7493Y3264D02*
Y3467D01*
X7671Y3645D01*
X8585D01*
X8728Y3788D01*
Y4367D01*
X6858Y3302D02*
Y3697D01*
X7528Y4367D01*
X8700Y2261D02*
X9042Y1918D01*
X5220Y3251D02*
Y3543D01*
X6680Y2261D02*
X8700D01*
X6274Y2667D02*
X6680Y2261D01*
X6274Y2667D02*
Y3594D01*
X6134Y3734D02*
X6274Y3594D01*
X6134Y3734D02*
X6210D01*
X5410D02*
X6134D01*
X5796Y3256D02*
X5842Y3302D01*
X5464Y3256D02*
X5796D01*
X5220Y3543D02*
X5410Y3734D01*
X6210D02*
X6442Y3965D01*
Y4367D01*
X4508Y3289D02*
Y3633D01*
X5242Y4367D01*
X3447Y3256D02*
X3505Y3315D01*
X3127Y3256D02*
X3447D01*
X2883Y3238D02*
Y3467D01*
X3023Y3607D01*
X3531D01*
X4156Y4232D01*
Y4367D01*
X4521Y3048D02*
Y3264D01*
X4331Y2858D02*
X4521Y3048D01*
X2413Y2858D02*
X4331D01*
X2235Y3035D02*
X2413Y2858D01*
X2235Y3035D02*
Y3302D01*
Y3646D01*
X2956Y4367D01*
X1727Y3848D02*
Y3886D01*
Y2667D02*
Y3848D01*
X1613Y3734D02*
X1727Y3848D01*
X1003Y3734D02*
X1613D01*
X587Y3317D02*
X1003Y3734D01*
X587Y3256D02*
Y3317D01*
X1067Y3302D02*
X1219D01*
X1021Y3256D02*
X1067Y3302D01*
X841Y3256D02*
X1021D01*
X2476Y1918D02*
X8522D01*
X1727Y2667D02*
X2476Y1918D01*
X1727Y3886D02*
X1870Y4029D01*
Y4367D01*
X10820Y1143D02*
X11290Y1613D01*
X10858D02*
X11290D01*
X10554Y1918D02*
X10858Y1613D01*
X15278Y1524D02*
X15583D01*
X16599D02*
Y1537D01*
Y1247D02*
Y1524D01*
X16017Y665D02*
X16599Y1247D01*
X15062Y1080D02*
X15481Y660D01*
X13868Y851D02*
X14097Y1080D01*
X15481Y660D02*
X15761D01*
X14097Y1080D02*
X15062D01*
X12179Y851D02*
X13868D01*
X10554Y673D02*
Y1156D01*
Y432D02*
Y673D01*
X12179Y483D02*
Y851D01*
X12001Y305D02*
X12179Y483D01*
X10681Y305D02*
X12001D01*
X10554Y432D02*
X10681Y305D01*
X10300Y686D02*
Y1156D01*
X10046Y686D02*
Y1156D01*
X9792Y686D02*
Y1156D01*
X9538Y673D02*
Y1156D01*
X9284Y673D02*
Y1156D01*
Y660D02*
Y673D01*
X9030D02*
Y1156D01*
X8776Y673D02*
Y1156D01*
X8522Y699D02*
Y1156D01*
D12*
X18205Y6838D02*
D03*
Y350D02*
D03*
X350Y6838D02*
D03*
Y350D02*
D03*
D13*
X17272Y3302D02*
D03*
X18288D02*
D03*
X15583Y1524D02*
D03*
X16599D02*
D03*
X16002Y3302D02*
D03*
X14986D02*
D03*
X13665D02*
D03*
X12649D02*
D03*
X11430D02*
D03*
X10414D02*
D03*
X9144D02*
D03*
X8128D02*
D03*
X6858D02*
D03*
X5842D02*
D03*
X4521D02*
D03*
X3505D02*
D03*
X2235D02*
D03*
X1219D02*
D03*
D14*
X16894Y3256D02*
D03*
X16017Y665D02*
D03*
X14658Y3256D02*
D03*
X12322D02*
D03*
X10036D02*
D03*
X7750D02*
D03*
X5464D02*
D03*
X3127D02*
D03*
X841D02*
D03*
D15*
X16640D02*
D03*
X15763Y665D02*
D03*
X14404Y3256D02*
D03*
X12068D02*
D03*
X9782D02*
D03*
X7496D02*
D03*
X5210D02*
D03*
X2873D02*
D03*
X587D02*
D03*
D16*
X15075Y1334D02*
D03*
D17*
Y1080D02*
D03*
X8776Y673D02*
D03*
X9030D02*
D03*
X9284D02*
D03*
X9538D02*
D03*
X9792D02*
D03*
X10046D02*
D03*
X10300D02*
D03*
X10554D02*
D03*
X10808D02*
D03*
X1270Y6452D02*
D03*
X1524D02*
D03*
X12700Y6502D02*
D03*
X12954D02*
D03*
X3556D02*
D03*
X3810D02*
D03*
X14986D02*
D03*
X15240D02*
D03*
X5842D02*
D03*
X6096D02*
D03*
X17272D02*
D03*
X17526D02*
D03*
X8128D02*
D03*
X8382D02*
D03*
X10414D02*
D03*
X10668D02*
D03*
D18*
X14986Y4167D02*
D03*
X12700D02*
D03*
X10414D02*
D03*
X8128D02*
D03*
X5842D02*
D03*
X3556D02*
D03*
X1270D02*
D03*
X17272D02*
D03*
D19*
X14386Y4367D02*
D03*
X15586D02*
D03*
X14386Y5587D02*
D03*
X15586D02*
D03*
X12100Y4367D02*
D03*
X13300D02*
D03*
X12100Y5587D02*
D03*
X13300D02*
D03*
X9814Y4367D02*
D03*
X11014D02*
D03*
X9814Y5587D02*
D03*
X11014D02*
D03*
X7528Y4367D02*
D03*
X8728D02*
D03*
X7528Y5587D02*
D03*
X8728D02*
D03*
X5242Y4367D02*
D03*
X6442D02*
D03*
X5242Y5587D02*
D03*
X6442D02*
D03*
X2956Y4367D02*
D03*
X4156D02*
D03*
X2956Y5587D02*
D03*
X4156D02*
D03*
X670Y4367D02*
D03*
X1870D02*
D03*
X670Y5587D02*
D03*
X1870D02*
D03*
X16672Y4367D02*
D03*
X17872D02*
D03*
X16672Y5587D02*
D03*
X17872D02*
D03*
D20*
X13907Y1664D02*
D03*
Y902D02*
D03*
X12179Y851D02*
D03*
D21*
Y1613D02*
D03*
D22*
X8522Y673D02*
D03*
X1016Y6452D02*
D03*
X12446Y6502D02*
D03*
X3302D02*
D03*
X14732D02*
D03*
X5588D02*
D03*
X17018D02*
D03*
X7874D02*
D03*
X10160D02*
D03*
D23*
X8522Y1156D02*
D03*
D24*
X8776D02*
D03*
X9030D02*
D03*
X9284D02*
D03*
X9538D02*
D03*
X9792D02*
D03*
X10046D02*
D03*
X10300D02*
D03*
X10554D02*
D03*
X8522Y1918D02*
D03*
X8776D02*
D03*
X9030D02*
D03*
X9284D02*
D03*
X9538D02*
D03*
X9792D02*
D03*
X10046D02*
D03*
X10300D02*
D03*
X10554D02*
D03*
D25*
X17869Y5575D02*
Y6160D01*
X17526Y6502D02*
X17869Y6160D01*
X17272Y4167D02*
Y6502D01*
Y4166D02*
Y4167D01*
X16675Y5588D02*
Y6160D01*
X17018Y6502D01*
X15583Y5588D02*
Y6160D01*
X15240Y6502D02*
X15583Y6160D01*
X14986Y4167D02*
Y6502D01*
Y4153D02*
Y4167D01*
Y4153D02*
X14999Y4140D01*
X14389Y5575D02*
Y6160D01*
X14732Y6502D01*
X13310Y5575D02*
Y6147D01*
X12954Y6502D02*
X13310Y6147D01*
X12700Y4167D02*
Y6502D01*
Y4153D02*
Y4167D01*
Y4153D02*
X12713Y4140D01*
X12103Y5588D02*
Y6160D01*
X12446Y6502D01*
X11024Y5575D02*
Y6147D01*
X10668Y6502D02*
X11024Y6147D01*
X10414Y4167D02*
Y6502D01*
Y4153D02*
Y4167D01*
X9804Y5588D02*
Y6147D01*
X10160Y6502D01*
X8725Y5601D02*
Y6160D01*
X8382Y6502D02*
X8725Y6160D01*
X8128Y4167D02*
Y6502D01*
Y4140D02*
Y4167D01*
X7531Y5575D02*
Y6160D01*
X7874Y6502D01*
X6452Y5588D02*
Y6147D01*
X6096Y6502D02*
X6452Y6147D01*
X5842Y4167D02*
Y6502D01*
Y4166D02*
Y4167D01*
X5245Y5563D02*
Y6160D01*
X5588Y6502D01*
X4166Y5575D02*
Y6147D01*
X3810Y6502D02*
X4166Y6147D01*
X3556Y4167D02*
Y6502D01*
Y4153D02*
Y4167D01*
Y4153D02*
X3569Y4140D01*
X2959Y5575D02*
Y6160D01*
X3302Y6502D01*
X1867Y5601D02*
Y6109D01*
X1524Y6452D02*
X1867Y6109D01*
X1270Y4167D02*
Y6452D01*
Y4166D02*
Y4167D01*
X673Y5575D02*
Y6109D01*
X1016Y6452D01*
M02*
