%FSLAX42Y42*%
%MOMM*%
G71*
G01*
G75*
G04 Layer_Color=2752767*
%ADD10C,0.75*%
%ADD11C,0.25*%
%ADD12C,1.52*%
%ADD13C,1.40*%
%ADD14R,1.60X2.20*%
%ADD15O,1.60X2.20*%
%ADD16R,1.50X1.50*%
%ADD17C,1.50*%
%ADD18C,3.00*%
%ADD19C,2.80*%
%ADD20C,1.20*%
%ADD21R,1.20X1.20*%
%ADD22R,1.50X1.50*%
%ADD23R,1.50X1.50*%
%ADD24C,1.50*%
%ADD25C,2.00*%
%ADD26C,0.20*%
%ADD27C,0.25*%
%ADD28C,0.15*%
%ADD29C,1.73*%
%ADD30C,1.60*%
%ADD31R,1.80X2.40*%
%ADD32O,1.80X2.40*%
%ADD33R,1.70X1.70*%
%ADD34C,1.70*%
%ADD35C,3.20*%
%ADD36C,3.00*%
%ADD37C,1.40*%
%ADD38R,1.40X1.40*%
%ADD39R,1.70X1.70*%
%ADD40R,1.70X1.70*%
%ADD41C,1.70*%
%ADD42C,0.17*%
D28*
X18154Y6787D02*
Y6889D01*
X18255D01*
Y6787D01*
X18154D01*
Y299D02*
Y401D01*
X18255D01*
Y299D01*
X18154D01*
X16894Y3205D02*
X16843Y3307D01*
X16944D01*
X16894Y3205D01*
X16640D02*
X16589Y3307D01*
X16690D01*
X16640Y3205D01*
X16017Y615D02*
X15966Y716D01*
X16068D01*
X16017Y615D01*
X15763D02*
X15712Y716D01*
X15814D01*
X15763Y615D01*
X15075Y1283D02*
X15100Y1308D01*
X15126D01*
X15100Y1334D01*
X15126Y1359D01*
X15100D01*
X15075Y1384D01*
X15049Y1359D01*
X15024D01*
X15049Y1334D01*
X15024Y1308D01*
X15049D01*
X15075Y1283D01*
Y1029D02*
X15100Y1054D01*
X15126D01*
X15100Y1080D01*
X15126Y1105D01*
X15100D01*
X15075Y1130D01*
X15049Y1105D01*
X15024D01*
X15049Y1080D01*
X15024Y1054D01*
X15049D01*
X15075Y1029D01*
X14658Y3205D02*
X14608Y3307D01*
X14709D01*
X14658Y3205D01*
X14404D02*
X14354Y3307D01*
X14455D01*
X14404Y3205D01*
X14935Y4116D02*
X14961Y4167D01*
X14935Y4218D01*
X14986Y4192D01*
X15037Y4218D01*
X15011Y4167D01*
X15037Y4116D01*
X14986Y4141D01*
X14935Y4116D01*
X14335Y4316D02*
X14361Y4367D01*
X14335Y4418D01*
X14386Y4392D01*
X14437Y4418D01*
X14411Y4367D01*
X14437Y4316D01*
X14386Y4341D01*
X14335Y4316D01*
X15535D02*
X15561Y4367D01*
X15535Y4418D01*
X15586Y4392D01*
X15637Y4418D01*
X15611Y4367D01*
X15637Y4316D01*
X15586Y4341D01*
X15535Y4316D01*
X14335Y5536D02*
X14361Y5587D01*
X14335Y5638D01*
X14386Y5612D01*
X14437Y5638D01*
X14411Y5587D01*
X14437Y5536D01*
X14386Y5561D01*
X14335Y5536D01*
X15535D02*
X15561Y5587D01*
X15535Y5638D01*
X15586Y5612D01*
X15637Y5638D01*
X15611Y5587D01*
X15637Y5536D01*
X15586Y5561D01*
X15535Y5536D01*
X12649Y4116D02*
X12675Y4167D01*
X12649Y4218D01*
X12700Y4192D01*
X12751Y4218D01*
X12725Y4167D01*
X12751Y4116D01*
X12700Y4141D01*
X12649Y4116D01*
X12049Y4316D02*
X12075Y4367D01*
X12049Y4418D01*
X12100Y4392D01*
X12151Y4418D01*
X12125Y4367D01*
X12151Y4316D01*
X12100Y4341D01*
X12049Y4316D01*
X13249D02*
X13275Y4367D01*
X13249Y4418D01*
X13300Y4392D01*
X13351Y4418D01*
X13325Y4367D01*
X13351Y4316D01*
X13300Y4341D01*
X13249Y4316D01*
X12049Y5536D02*
X12075Y5587D01*
X12049Y5638D01*
X12100Y5612D01*
X12151Y5638D01*
X12125Y5587D01*
X12151Y5536D01*
X12100Y5561D01*
X12049Y5536D01*
X13249D02*
X13275Y5587D01*
X13249Y5638D01*
X13300Y5612D01*
X13351Y5638D01*
X13325Y5587D01*
X13351Y5536D01*
X13300Y5561D01*
X13249Y5536D01*
X10363Y4116D02*
X10389Y4167D01*
X10363Y4218D01*
X10414Y4192D01*
X10465Y4218D01*
X10439Y4167D01*
X10465Y4116D01*
X10414Y4141D01*
X10363Y4116D01*
X9763Y4316D02*
X9789Y4367D01*
X9763Y4418D01*
X9814Y4392D01*
X9865Y4418D01*
X9839Y4367D01*
X9865Y4316D01*
X9814Y4341D01*
X9763Y4316D01*
X10963D02*
X10989Y4367D01*
X10963Y4418D01*
X11014Y4392D01*
X11065Y4418D01*
X11039Y4367D01*
X11065Y4316D01*
X11014Y4341D01*
X10963Y4316D01*
X9763Y5536D02*
X9789Y5587D01*
X9763Y5638D01*
X9814Y5612D01*
X9865Y5638D01*
X9839Y5587D01*
X9865Y5536D01*
X9814Y5561D01*
X9763Y5536D01*
X10963D02*
X10989Y5587D01*
X10963Y5638D01*
X11014Y5612D01*
X11065Y5638D01*
X11039Y5587D01*
X11065Y5536D01*
X11014Y5561D01*
X10963Y5536D01*
X8077Y4116D02*
X8103Y4167D01*
X8077Y4218D01*
X8128Y4192D01*
X8179Y4218D01*
X8153Y4167D01*
X8179Y4116D01*
X8128Y4141D01*
X8077Y4116D01*
X7477Y4316D02*
X7503Y4367D01*
X7477Y4418D01*
X7528Y4392D01*
X7579Y4418D01*
X7553Y4367D01*
X7579Y4316D01*
X7528Y4341D01*
X7477Y4316D01*
X8677D02*
X8703Y4367D01*
X8677Y4418D01*
X8728Y4392D01*
X8779Y4418D01*
X8753Y4367D01*
X8779Y4316D01*
X8728Y4341D01*
X8677Y4316D01*
X7477Y5536D02*
X7503Y5587D01*
X7477Y5638D01*
X7528Y5612D01*
X7579Y5638D01*
X7553Y5587D01*
X7579Y5536D01*
X7528Y5561D01*
X7477Y5536D01*
X8677D02*
X8703Y5587D01*
X8677Y5638D01*
X8728Y5612D01*
X8779Y5638D01*
X8753Y5587D01*
X8779Y5536D01*
X8728Y5561D01*
X8677Y5536D01*
X12322Y3205D02*
X12271Y3307D01*
X12372D01*
X12322Y3205D01*
X12068D02*
X12017Y3307D01*
X12118D01*
X12068Y3205D01*
X13881Y1638D02*
Y1613D01*
X13932D01*
Y1638D01*
X13957D01*
Y1689D01*
X13932D01*
Y1715D01*
X13881D01*
Y1689D01*
X13856D01*
Y1638D01*
X13881D01*
Y876D02*
Y851D01*
X13932D01*
Y876D01*
X13957D01*
Y927D01*
X13932D01*
Y952D01*
X13881D01*
Y927D01*
X13856D01*
Y876D01*
X13881D01*
X12154Y1588D02*
Y1562D01*
X12205D01*
Y1588D01*
X12230D01*
Y1638D01*
X12205D01*
Y1664D01*
X12154D01*
Y1638D01*
X12129D01*
Y1588D01*
X12154D01*
Y826D02*
Y800D01*
X12205D01*
Y826D01*
X12230D01*
Y876D01*
X12205D01*
Y902D01*
X12154D01*
Y876D01*
X12129D01*
Y826D01*
X12154D01*
X10036Y3205D02*
X9985Y3307D01*
X10086D01*
X10036Y3205D01*
X9782D02*
X9731Y3307D01*
X9832D01*
X9782Y3205D01*
X8522Y622D02*
X8547Y648D01*
X8572D01*
X8547Y673D01*
X8572Y699D01*
X8547D01*
X8522Y724D01*
X8496Y699D01*
X8471D01*
X8496Y673D01*
X8471Y648D01*
X8496D01*
X8522Y622D01*
X8776D02*
X8801Y648D01*
X8826D01*
X8801Y673D01*
X8826Y699D01*
X8801D01*
X8776Y724D01*
X8750Y699D01*
X8725D01*
X8750Y673D01*
X8725Y648D01*
X8750D01*
X8776Y622D01*
X9030D02*
X9055Y648D01*
X9081D01*
X9055Y673D01*
X9081Y699D01*
X9055D01*
X9030Y724D01*
X9004Y699D01*
X8979D01*
X9004Y673D01*
X8979Y648D01*
X9004D01*
X9030Y622D01*
X9284D02*
X9309Y648D01*
X9335D01*
X9309Y673D01*
X9335Y699D01*
X9309D01*
X9284Y724D01*
X9258Y699D01*
X9233D01*
X9258Y673D01*
X9233Y648D01*
X9258D01*
X9284Y622D01*
X9538D02*
X9563Y648D01*
X9589D01*
X9563Y673D01*
X9589Y699D01*
X9563D01*
X9538Y724D01*
X9512Y699D01*
X9487D01*
X9512Y673D01*
X9487Y648D01*
X9512D01*
X9538Y622D01*
X9792D02*
X9817Y648D01*
X9843D01*
X9817Y673D01*
X9843Y699D01*
X9817D01*
X9792Y724D01*
X9766Y699D01*
X9741D01*
X9766Y673D01*
X9741Y648D01*
X9766D01*
X9792Y622D01*
X10046D02*
X10071Y648D01*
X10096D01*
X10071Y673D01*
X10096Y699D01*
X10071D01*
X10046Y724D01*
X10020Y699D01*
X9995D01*
X10020Y673D01*
X9995Y648D01*
X10020D01*
X10046Y622D01*
X10300D02*
X10325Y648D01*
X10350D01*
X10325Y673D01*
X10350Y699D01*
X10325D01*
X10300Y724D01*
X10274Y699D01*
X10249D01*
X10274Y673D01*
X10249Y648D01*
X10274D01*
X10300Y622D01*
X10554D02*
X10579Y648D01*
X10604D01*
X10579Y673D01*
X10604Y699D01*
X10579D01*
X10554Y724D01*
X10528Y699D01*
X10503D01*
X10528Y673D01*
X10503Y648D01*
X10528D01*
X10554Y622D01*
X10808D02*
X10833Y648D01*
X10858D01*
X10833Y673D01*
X10858Y699D01*
X10833D01*
X10808Y724D01*
X10782Y699D01*
X10757D01*
X10782Y673D01*
X10757Y648D01*
X10782D01*
X10808Y622D01*
X8522Y1105D02*
X8547Y1130D01*
X8572D01*
X8547Y1156D01*
X8572Y1181D01*
X8547D01*
X8522Y1206D01*
X8496Y1181D01*
X8471D01*
X8496Y1156D01*
X8471Y1130D01*
X8496D01*
X8522Y1105D01*
X8776D02*
X8801Y1130D01*
X8826D01*
X8801Y1156D01*
X8826Y1181D01*
X8801D01*
X8776Y1206D01*
X8750Y1181D01*
X8725D01*
X8750Y1156D01*
X8725Y1130D01*
X8750D01*
X8776Y1105D01*
X9030D02*
X9055Y1130D01*
X9081D01*
X9055Y1156D01*
X9081Y1181D01*
X9055D01*
X9030Y1206D01*
X9004Y1181D01*
X8979D01*
X9004Y1156D01*
X8979Y1130D01*
X9004D01*
X9030Y1105D01*
X9284D02*
X9309Y1130D01*
X9335D01*
X9309Y1156D01*
X9335Y1181D01*
X9309D01*
X9284Y1206D01*
X9258Y1181D01*
X9233D01*
X9258Y1156D01*
X9233Y1130D01*
X9258D01*
X9284Y1105D01*
X9538D02*
X9563Y1130D01*
X9589D01*
X9563Y1156D01*
X9589Y1181D01*
X9563D01*
X9538Y1206D01*
X9512Y1181D01*
X9487D01*
X9512Y1156D01*
X9487Y1130D01*
X9512D01*
X9538Y1105D01*
X9792D02*
X9817Y1130D01*
X9843D01*
X9817Y1156D01*
X9843Y1181D01*
X9817D01*
X9792Y1206D01*
X9766Y1181D01*
X9741D01*
X9766Y1156D01*
X9741Y1130D01*
X9766D01*
X9792Y1105D01*
X10046D02*
X10071Y1130D01*
X10096D01*
X10071Y1156D01*
X10096Y1181D01*
X10071D01*
X10046Y1206D01*
X10020Y1181D01*
X9995D01*
X10020Y1156D01*
X9995Y1130D01*
X10020D01*
X10046Y1105D01*
X10300D02*
X10325Y1130D01*
X10350D01*
X10325Y1156D01*
X10350Y1181D01*
X10325D01*
X10300Y1206D01*
X10274Y1181D01*
X10249D01*
X10274Y1156D01*
X10249Y1130D01*
X10274D01*
X10300Y1105D01*
X10554D02*
X10579Y1130D01*
X10604D01*
X10579Y1156D01*
X10604Y1181D01*
X10579D01*
X10554Y1206D01*
X10528Y1181D01*
X10503D01*
X10528Y1156D01*
X10503Y1130D01*
X10528D01*
X10554Y1105D01*
X8522Y1867D02*
X8547Y1892D01*
X8572D01*
X8547Y1918D01*
X8572Y1943D01*
X8547D01*
X8522Y1968D01*
X8496Y1943D01*
X8471D01*
X8496Y1918D01*
X8471Y1892D01*
X8496D01*
X8522Y1867D01*
X8776D02*
X8801Y1892D01*
X8826D01*
X8801Y1918D01*
X8826Y1943D01*
X8801D01*
X8776Y1968D01*
X8750Y1943D01*
X8725D01*
X8750Y1918D01*
X8725Y1892D01*
X8750D01*
X8776Y1867D01*
X9030D02*
X9055Y1892D01*
X9081D01*
X9055Y1918D01*
X9081Y1943D01*
X9055D01*
X9030Y1968D01*
X9004Y1943D01*
X8979D01*
X9004Y1918D01*
X8979Y1892D01*
X9004D01*
X9030Y1867D01*
X9284D02*
X9309Y1892D01*
X9335D01*
X9309Y1918D01*
X9335Y1943D01*
X9309D01*
X9284Y1968D01*
X9258Y1943D01*
X9233D01*
X9258Y1918D01*
X9233Y1892D01*
X9258D01*
X9284Y1867D01*
X9538D02*
X9563Y1892D01*
X9589D01*
X9563Y1918D01*
X9589Y1943D01*
X9563D01*
X9538Y1968D01*
X9512Y1943D01*
X9487D01*
X9512Y1918D01*
X9487Y1892D01*
X9512D01*
X9538Y1867D01*
X9792D02*
X9817Y1892D01*
X9843D01*
X9817Y1918D01*
X9843Y1943D01*
X9817D01*
X9792Y1968D01*
X9766Y1943D01*
X9741D01*
X9766Y1918D01*
X9741Y1892D01*
X9766D01*
X9792Y1867D01*
X10046D02*
X10071Y1892D01*
X10096D01*
X10071Y1918D01*
X10096Y1943D01*
X10071D01*
X10046Y1968D01*
X10020Y1943D01*
X9995D01*
X10020Y1918D01*
X9995Y1892D01*
X10020D01*
X10046Y1867D01*
X10300D02*
X10325Y1892D01*
X10350D01*
X10325Y1918D01*
X10350Y1943D01*
X10325D01*
X10300Y1968D01*
X10274Y1943D01*
X10249D01*
X10274Y1918D01*
X10249Y1892D01*
X10274D01*
X10300Y1867D01*
X10554D02*
X10579Y1892D01*
X10604D01*
X10579Y1918D01*
X10604Y1943D01*
X10579D01*
X10554Y1968D01*
X10528Y1943D01*
X10503D01*
X10528Y1918D01*
X10503Y1892D01*
X10528D01*
X10554Y1867D01*
X7750Y3205D02*
X7699Y3307D01*
X7800D01*
X7750Y3205D01*
X7496D02*
X7445Y3307D01*
X7546D01*
X7496Y3205D01*
X5791Y4116D02*
X5817Y4167D01*
X5791Y4218D01*
X5842Y4192D01*
X5893Y4218D01*
X5867Y4167D01*
X5893Y4116D01*
X5842Y4141D01*
X5791Y4116D01*
X5191Y4316D02*
X5217Y4367D01*
X5191Y4418D01*
X5242Y4392D01*
X5293Y4418D01*
X5267Y4367D01*
X5293Y4316D01*
X5242Y4341D01*
X5191Y4316D01*
X6391D02*
X6417Y4367D01*
X6391Y4418D01*
X6442Y4392D01*
X6493Y4418D01*
X6467Y4367D01*
X6493Y4316D01*
X6442Y4341D01*
X6391Y4316D01*
X5191Y5536D02*
X5217Y5587D01*
X5191Y5638D01*
X5242Y5612D01*
X5293Y5638D01*
X5267Y5587D01*
X5293Y5536D01*
X5242Y5561D01*
X5191Y5536D01*
X6391D02*
X6417Y5587D01*
X6391Y5638D01*
X6442Y5612D01*
X6493Y5638D01*
X6467Y5587D01*
X6493Y5536D01*
X6442Y5561D01*
X6391Y5536D01*
X3505Y4116D02*
X3531Y4167D01*
X3505Y4218D01*
X3556Y4192D01*
X3607Y4218D01*
X3581Y4167D01*
X3607Y4116D01*
X3556Y4141D01*
X3505Y4116D01*
X2905Y4316D02*
X2931Y4367D01*
X2905Y4418D01*
X2956Y4392D01*
X3007Y4418D01*
X2981Y4367D01*
X3007Y4316D01*
X2956Y4341D01*
X2905Y4316D01*
X4105D02*
X4131Y4367D01*
X4105Y4418D01*
X4156Y4392D01*
X4207Y4418D01*
X4181Y4367D01*
X4207Y4316D01*
X4156Y4341D01*
X4105Y4316D01*
X2905Y5536D02*
X2931Y5587D01*
X2905Y5638D01*
X2956Y5612D01*
X3007Y5638D01*
X2981Y5587D01*
X3007Y5536D01*
X2956Y5561D01*
X2905Y5536D01*
X4105D02*
X4131Y5587D01*
X4105Y5638D01*
X4156Y5612D01*
X4207Y5638D01*
X4181Y5587D01*
X4207Y5536D01*
X4156Y5561D01*
X4105Y5536D01*
X1219Y4116D02*
X1245Y4167D01*
X1219Y4218D01*
X1270Y4192D01*
X1321Y4218D01*
X1295Y4167D01*
X1321Y4116D01*
X1270Y4141D01*
X1219Y4116D01*
X619Y4316D02*
X645Y4367D01*
X619Y4418D01*
X670Y4392D01*
X721Y4418D01*
X695Y4367D01*
X721Y4316D01*
X670Y4341D01*
X619Y4316D01*
X1819D02*
X1845Y4367D01*
X1819Y4418D01*
X1870Y4392D01*
X1921Y4418D01*
X1895Y4367D01*
X1921Y4316D01*
X1870Y4341D01*
X1819Y4316D01*
X619Y5536D02*
X645Y5587D01*
X619Y5638D01*
X670Y5612D01*
X721Y5638D01*
X695Y5587D01*
X721Y5536D01*
X670Y5561D01*
X619Y5536D01*
X1819D02*
X1845Y5587D01*
X1819Y5638D01*
X1870Y5612D01*
X1921Y5638D01*
X1895Y5587D01*
X1921Y5536D01*
X1870Y5561D01*
X1819Y5536D01*
X5464Y3205D02*
X5413Y3307D01*
X5514D01*
X5464Y3205D01*
X5210D02*
X5159Y3307D01*
X5260D01*
X5210Y3205D01*
X3127D02*
X3076Y3307D01*
X3178D01*
X3127Y3205D01*
X2873D02*
X2822Y3307D01*
X2924D01*
X2873Y3205D01*
X841D02*
X790Y3307D01*
X892D01*
X841Y3205D01*
X587D02*
X536Y3307D01*
X638D01*
X587Y3205D01*
X299Y6787D02*
Y6889D01*
X401D01*
Y6787D01*
X299D01*
Y299D02*
Y401D01*
X401D01*
Y299D01*
X299D01*
X1016Y6401D02*
X1041Y6426D01*
X1067D01*
X1041Y6452D01*
X1067Y6477D01*
X1041D01*
X1016Y6502D01*
X991Y6477D01*
X965D01*
X991Y6452D01*
X965Y6426D01*
X991D01*
X1016Y6401D01*
X1270D02*
X1295Y6426D01*
X1321D01*
X1295Y6452D01*
X1321Y6477D01*
X1295D01*
X1270Y6502D01*
X1245Y6477D01*
X1219D01*
X1245Y6452D01*
X1219Y6426D01*
X1245D01*
X1270Y6401D01*
X1524D02*
X1549Y6426D01*
X1575D01*
X1549Y6452D01*
X1575Y6477D01*
X1549D01*
X1524Y6502D01*
X1499Y6477D01*
X1473D01*
X1499Y6452D01*
X1473Y6426D01*
X1499D01*
X1524Y6401D01*
X12446Y6452D02*
X12471Y6477D01*
X12497D01*
X12471Y6502D01*
X12497Y6528D01*
X12471D01*
X12446Y6553D01*
X12421Y6528D01*
X12395D01*
X12421Y6502D01*
X12395Y6477D01*
X12421D01*
X12446Y6452D01*
X12700D02*
X12725Y6477D01*
X12751D01*
X12725Y6502D01*
X12751Y6528D01*
X12725D01*
X12700Y6553D01*
X12675Y6528D01*
X12649D01*
X12675Y6502D01*
X12649Y6477D01*
X12675D01*
X12700Y6452D01*
X12954D02*
X12979Y6477D01*
X13005D01*
X12979Y6502D01*
X13005Y6528D01*
X12979D01*
X12954Y6553D01*
X12929Y6528D01*
X12903D01*
X12929Y6502D01*
X12903Y6477D01*
X12929D01*
X12954Y6452D01*
X3302D02*
X3327Y6477D01*
X3353D01*
X3327Y6502D01*
X3353Y6528D01*
X3327D01*
X3302Y6553D01*
X3277Y6528D01*
X3251D01*
X3277Y6502D01*
X3251Y6477D01*
X3277D01*
X3302Y6452D01*
X3556D02*
X3581Y6477D01*
X3607D01*
X3581Y6502D01*
X3607Y6528D01*
X3581D01*
X3556Y6553D01*
X3531Y6528D01*
X3505D01*
X3531Y6502D01*
X3505Y6477D01*
X3531D01*
X3556Y6452D01*
X3810D02*
X3835Y6477D01*
X3861D01*
X3835Y6502D01*
X3861Y6528D01*
X3835D01*
X3810Y6553D01*
X3785Y6528D01*
X3759D01*
X3785Y6502D01*
X3759Y6477D01*
X3785D01*
X3810Y6452D01*
X14732D02*
X14757Y6477D01*
X14783D01*
X14757Y6502D01*
X14783Y6528D01*
X14757D01*
X14732Y6553D01*
X14707Y6528D01*
X14681D01*
X14707Y6502D01*
X14681Y6477D01*
X14707D01*
X14732Y6452D01*
X14986D02*
X15011Y6477D01*
X15037D01*
X15011Y6502D01*
X15037Y6528D01*
X15011D01*
X14986Y6553D01*
X14961Y6528D01*
X14935D01*
X14961Y6502D01*
X14935Y6477D01*
X14961D01*
X14986Y6452D01*
X15240D02*
X15265Y6477D01*
X15291D01*
X15265Y6502D01*
X15291Y6528D01*
X15265D01*
X15240Y6553D01*
X15215Y6528D01*
X15189D01*
X15215Y6502D01*
X15189Y6477D01*
X15215D01*
X15240Y6452D01*
X5588D02*
X5613Y6477D01*
X5639D01*
X5613Y6502D01*
X5639Y6528D01*
X5613D01*
X5588Y6553D01*
X5563Y6528D01*
X5537D01*
X5563Y6502D01*
X5537Y6477D01*
X5563D01*
X5588Y6452D01*
X5842D02*
X5867Y6477D01*
X5893D01*
X5867Y6502D01*
X5893Y6528D01*
X5867D01*
X5842Y6553D01*
X5817Y6528D01*
X5791D01*
X5817Y6502D01*
X5791Y6477D01*
X5817D01*
X5842Y6452D01*
X6096D02*
X6121Y6477D01*
X6147D01*
X6121Y6502D01*
X6147Y6528D01*
X6121D01*
X6096Y6553D01*
X6071Y6528D01*
X6045D01*
X6071Y6502D01*
X6045Y6477D01*
X6071D01*
X6096Y6452D01*
X17018D02*
X17043Y6477D01*
X17069D01*
X17043Y6502D01*
X17069Y6528D01*
X17043D01*
X17018Y6553D01*
X16993Y6528D01*
X16967D01*
X16993Y6502D01*
X16967Y6477D01*
X16993D01*
X17018Y6452D01*
X17272D02*
X17297Y6477D01*
X17323D01*
X17297Y6502D01*
X17323Y6528D01*
X17297D01*
X17272Y6553D01*
X17247Y6528D01*
X17221D01*
X17247Y6502D01*
X17221Y6477D01*
X17247D01*
X17272Y6452D01*
X17526D02*
X17551Y6477D01*
X17577D01*
X17551Y6502D01*
X17577Y6528D01*
X17551D01*
X17526Y6553D01*
X17501Y6528D01*
X17475D01*
X17501Y6502D01*
X17475Y6477D01*
X17501D01*
X17526Y6452D01*
X7874D02*
X7899Y6477D01*
X7925D01*
X7899Y6502D01*
X7925Y6528D01*
X7899D01*
X7874Y6553D01*
X7849Y6528D01*
X7823D01*
X7849Y6502D01*
X7823Y6477D01*
X7849D01*
X7874Y6452D01*
X8128D02*
X8153Y6477D01*
X8179D01*
X8153Y6502D01*
X8179Y6528D01*
X8153D01*
X8128Y6553D01*
X8103Y6528D01*
X8077D01*
X8103Y6502D01*
X8077Y6477D01*
X8103D01*
X8128Y6452D01*
X8382D02*
X8407Y6477D01*
X8433D01*
X8407Y6502D01*
X8433Y6528D01*
X8407D01*
X8382Y6553D01*
X8357Y6528D01*
X8331D01*
X8357Y6502D01*
X8331Y6477D01*
X8357D01*
X8382Y6452D01*
X17221Y4116D02*
X17247Y4167D01*
X17221Y4218D01*
X17272Y4192D01*
X17323Y4218D01*
X17297Y4167D01*
X17323Y4116D01*
X17272Y4141D01*
X17221Y4116D01*
X16621Y4316D02*
X16647Y4367D01*
X16621Y4418D01*
X16672Y4392D01*
X16723Y4418D01*
X16697Y4367D01*
X16723Y4316D01*
X16672Y4341D01*
X16621Y4316D01*
X17821D02*
X17847Y4367D01*
X17821Y4418D01*
X17872Y4392D01*
X17923Y4418D01*
X17897Y4367D01*
X17923Y4316D01*
X17872Y4341D01*
X17821Y4316D01*
X16621Y5536D02*
X16647Y5587D01*
X16621Y5638D01*
X16672Y5612D01*
X16723Y5638D01*
X16697Y5587D01*
X16723Y5536D01*
X16672Y5561D01*
X16621Y5536D01*
X17821D02*
X17847Y5587D01*
X17821Y5638D01*
X17872Y5612D01*
X17923Y5638D01*
X17897Y5587D01*
X17923Y5536D01*
X17872Y5561D01*
X17821Y5536D01*
X10160Y6452D02*
X10185Y6477D01*
X10211D01*
X10185Y6502D01*
X10211Y6528D01*
X10185D01*
X10160Y6553D01*
X10135Y6528D01*
X10109D01*
X10135Y6502D01*
X10109Y6477D01*
X10135D01*
X10160Y6452D01*
X10414D02*
X10439Y6477D01*
X10465D01*
X10439Y6502D01*
X10465Y6528D01*
X10439D01*
X10414Y6553D01*
X10389Y6528D01*
X10363D01*
X10389Y6502D01*
X10363Y6477D01*
X10389D01*
X10414Y6452D01*
X10668D02*
X10693Y6477D01*
X10719D01*
X10693Y6502D01*
X10719Y6528D01*
X10693D01*
X10668Y6553D01*
X10643Y6528D01*
X10617D01*
X10643Y6502D01*
X10617Y6477D01*
X10643D01*
X10668Y6452D01*
D42*
X17323Y3302D02*
G03*
X17323Y3302I-51J0D01*
G01*
X18339D02*
G03*
X18339Y3302I-51J0D01*
G01*
X15634Y1524D02*
G03*
X15634Y1524I-51J0D01*
G01*
X16650D02*
G03*
X16650Y1524I-51J0D01*
G01*
X16053Y3302D02*
G03*
X16053Y3302I-51J0D01*
G01*
X15037D02*
G03*
X15037Y3302I-51J0D01*
G01*
X13716D02*
G03*
X13716Y3302I-51J0D01*
G01*
X12700D02*
G03*
X12700Y3302I-51J0D01*
G01*
X11481D02*
G03*
X11481Y3302I-51J0D01*
G01*
X10465D02*
G03*
X10465Y3302I-51J0D01*
G01*
X9195D02*
G03*
X9195Y3302I-51J0D01*
G01*
X8179D02*
G03*
X8179Y3302I-51J0D01*
G01*
X6909D02*
G03*
X6909Y3302I-51J0D01*
G01*
X5893D02*
G03*
X5893Y3302I-51J0D01*
G01*
X4572D02*
G03*
X4572Y3302I-51J0D01*
G01*
X3556D02*
G03*
X3556Y3302I-51J0D01*
G01*
X2286D02*
G03*
X2286Y3302I-51J0D01*
G01*
X1270D02*
G03*
X1270Y3302I-51J0D01*
G01*
M02*
