%FSLAX42Y42*%
%MOMM*%
G71*
G01*
G75*
G04 Layer_Color=65535*
%ADD10C,0.75*%
%ADD11C,0.25*%
%ADD12C,1.52*%
%ADD13C,1.40*%
%ADD14R,1.60X2.20*%
%ADD15O,1.60X2.20*%
%ADD16R,1.50X1.50*%
%ADD17C,1.50*%
%ADD18C,3.00*%
%ADD19C,2.80*%
%ADD20C,1.20*%
%ADD21R,1.20X1.20*%
%ADD22R,1.50X1.50*%
%ADD23R,1.50X1.50*%
%ADD24C,1.50*%
%ADD25C,2.00*%
%ADD26C,0.20*%
%ADD27C,0.25*%
%ADD28C,0.15*%
G36*
X3051Y3005D02*
X2988Y3067D01*
X3051Y3129D01*
Y3005D01*
D02*
G37*
G36*
X5387D02*
X5325Y3067D01*
X5387Y3129D01*
Y3005D01*
D02*
G37*
G36*
X15941Y414D02*
X15879Y476D01*
X15941Y538D01*
Y414D01*
D02*
G37*
G36*
X765Y3005D02*
X702Y3067D01*
X765Y3129D01*
Y3005D01*
D02*
G37*
G36*
X7673D02*
X7611Y3067D01*
X7673Y3129D01*
Y3005D01*
D02*
G37*
G36*
X14582D02*
X14520Y3067D01*
X14582Y3129D01*
Y3005D01*
D02*
G37*
G36*
X16817D02*
X16755Y3067D01*
X16817Y3129D01*
Y3005D01*
D02*
G37*
G36*
X9959D02*
X9897Y3067D01*
X9959Y3129D01*
Y3005D01*
D02*
G37*
G36*
X12245D02*
X12183Y3067D01*
X12245Y3129D01*
Y3005D01*
D02*
G37*
D11*
X16515Y3111D02*
G03*
X16514Y3400I251J145D01*
G01*
X15639Y520D02*
G03*
X15638Y809I251J145D01*
G01*
X14280Y3111D02*
G03*
X14279Y3400I251J145D01*
G01*
X15240Y4432D02*
G03*
X15113Y4432I-64J0D01*
G01*
X15113D02*
G03*
X14986Y4432I-64J0D01*
G01*
X14986D02*
G03*
X14859Y4432I-64J0D01*
G01*
X14859D02*
G03*
X14732Y4432I-64J0D01*
G01*
X12954D02*
G03*
X12827Y4432I-64J0D01*
G01*
X12827D02*
G03*
X12700Y4432I-64J0D01*
G01*
X12700D02*
G03*
X12573Y4432I-64J0D01*
G01*
X12573D02*
G03*
X12446Y4432I-64J0D01*
G01*
X10668D02*
G03*
X10541Y4432I-64J0D01*
G01*
X10541D02*
G03*
X10414Y4432I-64J0D01*
G01*
X10414D02*
G03*
X10287Y4432I-64J0D01*
G01*
X10287D02*
G03*
X10160Y4432I-64J0D01*
G01*
X8382D02*
G03*
X8255Y4432I-64J0D01*
G01*
X8255D02*
G03*
X8128Y4432I-64J0D01*
G01*
X8128D02*
G03*
X8001Y4432I-64J0D01*
G01*
X8001D02*
G03*
X7874Y4432I-64J0D01*
G01*
X11943Y3111D02*
G03*
X11942Y3400I251J145D01*
G01*
X9657Y3111D02*
G03*
X9656Y3400I251J145D01*
G01*
X7371Y3111D02*
G03*
X7370Y3400I251J145D01*
G01*
X6096Y4432D02*
G03*
X5969Y4432I-64J0D01*
G01*
X5969D02*
G03*
X5842Y4432I-64J0D01*
G01*
X5842D02*
G03*
X5715Y4432I-64J0D01*
G01*
X5715D02*
G03*
X5588Y4432I-64J0D01*
G01*
X3810D02*
G03*
X3683Y4432I-64J0D01*
G01*
X3683D02*
G03*
X3556Y4432I-64J0D01*
G01*
X3556D02*
G03*
X3429Y4432I-64J0D01*
G01*
X3429D02*
G03*
X3302Y4432I-64J0D01*
G01*
X1524D02*
G03*
X1397Y4432I-64J0D01*
G01*
X1397D02*
G03*
X1270Y4432I-64J0D01*
G01*
X1270D02*
G03*
X1143Y4432I-64J0D01*
G01*
X1143D02*
G03*
X1016Y4432I-64J0D01*
G01*
X5085Y3111D02*
G03*
X5084Y3400I251J145D01*
G01*
X2749Y3111D02*
G03*
X2748Y3400I251J145D01*
G01*
X463Y3111D02*
G03*
X462Y3400I251J145D01*
G01*
X17526Y4432D02*
G03*
X17399Y4432I-64J0D01*
G01*
X17399D02*
G03*
X17272Y4432I-64J0D01*
G01*
X17272D02*
G03*
X17145Y4432I-64J0D01*
G01*
X17145D02*
G03*
X17018Y4432I-64J0D01*
G01*
X16515Y3111D02*
Y3399D01*
X15639Y520D02*
Y808D01*
X14280Y3111D02*
Y3399D01*
X14208Y3942D02*
Y5842D01*
Y3942D02*
X15748D01*
Y5842D01*
X14208D02*
X15748D01*
X11922Y3942D02*
Y5842D01*
Y3942D02*
X13462D01*
Y5842D01*
X11922D02*
X13462D01*
X9636Y3942D02*
Y5842D01*
Y3942D02*
X11176D01*
Y5842D01*
X9636D02*
X11176D01*
X7350Y3942D02*
Y5842D01*
Y3942D02*
X8890D01*
Y5842D01*
X7350D02*
X8890D01*
X11943Y3111D02*
Y3399D01*
X9657Y3111D02*
Y3399D01*
X7371Y3111D02*
Y3399D01*
X5064Y3942D02*
Y5842D01*
Y3942D02*
X6604D01*
Y5842D01*
X5064D02*
X6604D01*
X2778Y3942D02*
Y5842D01*
Y3942D02*
X4318D01*
Y5842D01*
X2778D02*
X4318D01*
X492Y3942D02*
Y5842D01*
Y3942D02*
X2032D01*
Y5842D01*
X492D02*
X2032D01*
X5085Y3111D02*
Y3399D01*
X2749Y3111D02*
Y3399D01*
X463Y3111D02*
Y3399D01*
X16494Y3942D02*
Y5842D01*
Y3942D02*
X18034D01*
Y5842D01*
X16494D02*
X18034D01*
X17716Y3480D02*
Y3632D01*
X17793D01*
X17818Y3607D01*
Y3556D01*
X17793Y3531D01*
X17716D01*
X17767D02*
X17818Y3480D01*
X17869Y3607D02*
X17894Y3632D01*
X17945D01*
X17970Y3607D01*
Y3581D01*
X17945Y3556D01*
X17970Y3531D01*
Y3505D01*
X17945Y3480D01*
X17894D01*
X17869Y3505D01*
Y3531D01*
X17894Y3556D01*
X17869Y3581D01*
Y3607D01*
X17894Y3556D02*
X17945D01*
X16218Y3569D02*
Y3416D01*
X16294D01*
X16319Y3442D01*
Y3543D01*
X16294Y3569D01*
X16218D01*
X16370Y3543D02*
X16396Y3569D01*
X16446D01*
X16472Y3543D01*
Y3518D01*
X16446Y3492D01*
X16472Y3467D01*
Y3442D01*
X16446Y3416D01*
X16396D01*
X16370Y3442D01*
Y3467D01*
X16396Y3492D01*
X16370Y3518D01*
Y3543D01*
X16396Y3492D02*
X16446D01*
X16320Y622D02*
Y470D01*
X16396D01*
X16421Y495D01*
Y597D01*
X16396Y622D01*
X16320D01*
X16472Y495D02*
X16497Y470D01*
X16548D01*
X16573Y495D01*
Y597D01*
X16548Y622D01*
X16497D01*
X16472Y597D01*
Y571D01*
X16497Y546D01*
X16573D01*
X15926Y1689D02*
Y1841D01*
X16002D01*
X16027Y1816D01*
Y1765D01*
X16002Y1740D01*
X15926D01*
X15977D02*
X16027Y1689D01*
X16078Y1714D02*
X16104Y1689D01*
X16154D01*
X16180Y1714D01*
Y1816D01*
X16154Y1841D01*
X16104D01*
X16078Y1816D01*
Y1791D01*
X16104Y1765D01*
X16180D01*
X14783Y749D02*
X14757Y775D01*
X14707D01*
X14681Y749D01*
Y648D01*
X14707Y622D01*
X14757D01*
X14783Y648D01*
X14834Y622D02*
Y775D01*
X14935Y622D01*
Y775D01*
X14986Y622D02*
X15037D01*
X15011D01*
Y775D01*
X14986Y749D01*
X15113D02*
X15138Y775D01*
X15189D01*
X15214Y749D01*
Y648D01*
X15189Y622D01*
X15138D01*
X15113Y648D01*
Y749D01*
X15354Y2946D02*
Y3099D01*
X15430D01*
X15456Y3073D01*
Y3023D01*
X15430Y2997D01*
X15354D01*
X15405D02*
X15456Y2946D01*
X15507Y3099D02*
X15608D01*
Y3073D01*
X15507Y2972D01*
Y2946D01*
X13970Y3454D02*
Y3302D01*
X14046D01*
X14072Y3327D01*
Y3429D01*
X14046Y3454D01*
X13970D01*
X14122D02*
X14224D01*
Y3429D01*
X14122Y3327D01*
Y3302D01*
X14084Y5220D02*
X13932D01*
Y5296D01*
X13957Y5321D01*
X14008D01*
X14034Y5296D01*
Y5220D01*
Y5270D02*
X14084Y5321D01*
X13932Y5474D02*
Y5372D01*
X14084D01*
Y5474D01*
X14008Y5372D02*
Y5423D01*
X13932Y5677D02*
Y5778D01*
X13957D01*
X14059Y5677D01*
X14084D01*
X15710Y5410D02*
Y5258D01*
X15608Y5410D01*
Y5258D01*
X15481D02*
X15532D01*
X15558Y5283D01*
Y5385D01*
X15532Y5410D01*
X15481D01*
X15456Y5385D01*
Y5283D01*
X15481Y5258D01*
X14491Y5410D02*
Y5258D01*
X14389Y5410D01*
Y5258D01*
X14237Y5283D02*
X14262Y5258D01*
X14313D01*
X14338Y5283D01*
Y5385D01*
X14313Y5410D01*
X14262D01*
X14237Y5385D01*
X14732Y3988D02*
X14757Y3962D01*
X14808D01*
X14834Y3988D01*
Y4089D01*
X14808Y4115D01*
X14757D01*
X14732Y4089D01*
X14605Y3962D02*
X14656D01*
X14681Y3988D01*
Y4089D01*
X14656Y4115D01*
X14605D01*
X14580Y4089D01*
Y3988D01*
X14605Y3962D01*
X14529Y4115D02*
Y3962D01*
X14478Y4013D01*
X14427Y3962D01*
Y4115D01*
X13030Y2959D02*
Y3111D01*
X13106D01*
X13132Y3086D01*
Y3035D01*
X13106Y3010D01*
X13030D01*
X13081D02*
X13132Y2959D01*
X13284Y3111D02*
X13233Y3086D01*
X13183Y3035D01*
Y2984D01*
X13208Y2959D01*
X13259D01*
X13284Y2984D01*
Y3010D01*
X13259Y3035D01*
X13183D01*
X11836Y5220D02*
X11684D01*
Y5296D01*
X11709Y5321D01*
X11760D01*
X11786Y5296D01*
Y5220D01*
Y5270D02*
X11836Y5321D01*
X11684Y5474D02*
Y5372D01*
X11836D01*
Y5474D01*
X11760Y5372D02*
Y5423D01*
X11684Y5778D02*
X11709Y5728D01*
X11760Y5677D01*
X11811D01*
X11836Y5702D01*
Y5753D01*
X11811Y5778D01*
X11786D01*
X11760Y5753D01*
Y5677D01*
X13424Y5410D02*
Y5258D01*
X13322Y5410D01*
Y5258D01*
X13195D02*
X13246D01*
X13272Y5283D01*
Y5385D01*
X13246Y5410D01*
X13195D01*
X13170Y5385D01*
Y5283D01*
X13195Y5258D01*
X12205Y5410D02*
Y5258D01*
X12103Y5410D01*
Y5258D01*
X11951Y5283D02*
X11976Y5258D01*
X12027D01*
X12052Y5283D01*
Y5385D01*
X12027Y5410D01*
X11976D01*
X11951Y5385D01*
X12446Y3988D02*
X12471Y3962D01*
X12522D01*
X12548Y3988D01*
Y4089D01*
X12522Y4115D01*
X12471D01*
X12446Y4089D01*
X12319Y3962D02*
X12370D01*
X12395Y3988D01*
Y4089D01*
X12370Y4115D01*
X12319D01*
X12294Y4089D01*
Y3988D01*
X12319Y3962D01*
X12243Y4115D02*
Y3962D01*
X12192Y4013D01*
X12141Y3962D01*
Y4115D01*
X9525Y5220D02*
X9373D01*
Y5296D01*
X9398Y5321D01*
X9449D01*
X9474Y5296D01*
Y5220D01*
Y5270D02*
X9525Y5321D01*
X9373Y5474D02*
Y5372D01*
X9525D01*
Y5474D01*
X9449Y5372D02*
Y5423D01*
X9373Y5778D02*
Y5677D01*
X9449D01*
X9423Y5728D01*
Y5753D01*
X9449Y5778D01*
X9500D01*
X9525Y5753D01*
Y5702D01*
X9500Y5677D01*
X11138Y5410D02*
Y5258D01*
X11036Y5410D01*
Y5258D01*
X10909D02*
X10960D01*
X10986Y5283D01*
Y5385D01*
X10960Y5410D01*
X10909D01*
X10884Y5385D01*
Y5283D01*
X10909Y5258D01*
X9919Y5410D02*
Y5258D01*
X9817Y5410D01*
Y5258D01*
X9665Y5283D02*
X9690Y5258D01*
X9741D01*
X9766Y5283D01*
Y5385D01*
X9741Y5410D01*
X9690D01*
X9665Y5385D01*
X10160Y3988D02*
X10185Y3962D01*
X10236D01*
X10262Y3988D01*
Y4089D01*
X10236Y4115D01*
X10185D01*
X10160Y4089D01*
X10033Y3962D02*
X10084D01*
X10109Y3988D01*
Y4089D01*
X10084Y4115D01*
X10033D01*
X10008Y4089D01*
Y3988D01*
X10033Y3962D01*
X9957Y4115D02*
Y3962D01*
X9906Y4013D01*
X9855Y3962D01*
Y4115D01*
X7264Y5258D02*
X7112D01*
Y5334D01*
X7137Y5359D01*
X7188D01*
X7214Y5334D01*
Y5258D01*
Y5309D02*
X7264Y5359D01*
X7112Y5512D02*
Y5410D01*
X7264D01*
Y5512D01*
X7188Y5410D02*
Y5461D01*
X7264Y5791D02*
X7112D01*
X7188Y5715D01*
Y5816D01*
X8852Y5410D02*
Y5258D01*
X8750Y5410D01*
Y5258D01*
X8623D02*
X8674D01*
X8700Y5283D01*
Y5385D01*
X8674Y5410D01*
X8623D01*
X8598Y5385D01*
Y5283D01*
X8623Y5258D01*
X7633Y5410D02*
Y5258D01*
X7531Y5410D01*
Y5258D01*
X7379Y5283D02*
X7404Y5258D01*
X7455D01*
X7480Y5283D01*
Y5385D01*
X7455Y5410D01*
X7404D01*
X7379Y5385D01*
X7874Y3988D02*
X7899Y3962D01*
X7950D01*
X7976Y3988D01*
Y4089D01*
X7950Y4115D01*
X7899D01*
X7874Y4089D01*
X7747Y3962D02*
X7798D01*
X7823Y3988D01*
Y4089D01*
X7798Y4115D01*
X7747D01*
X7722Y4089D01*
Y3988D01*
X7747Y3962D01*
X7671Y4115D02*
Y3962D01*
X7620Y4013D01*
X7569Y3962D01*
Y4115D01*
X11595Y3365D02*
Y3213D01*
X11671D01*
X11697Y3238D01*
Y3340D01*
X11671Y3365D01*
X11595D01*
X11849D02*
X11798Y3340D01*
X11747Y3289D01*
Y3238D01*
X11773Y3213D01*
X11824D01*
X11849Y3238D01*
Y3264D01*
X11824Y3289D01*
X11747D01*
X13932Y521D02*
X13906Y546D01*
X13856D01*
X13830Y521D01*
Y419D01*
X13856Y394D01*
X13906D01*
X13932Y419D01*
X13983Y394D02*
X14033D01*
X14008D01*
Y546D01*
X13983Y521D01*
X12586Y368D02*
X12560Y394D01*
X12509D01*
X12484Y368D01*
Y267D01*
X12509Y241D01*
X12560D01*
X12586Y267D01*
X12738Y241D02*
X12636D01*
X12738Y343D01*
Y368D01*
X12713Y394D01*
X12662D01*
X12636Y368D01*
X10795Y2972D02*
Y3124D01*
X10871D01*
X10897Y3099D01*
Y3048D01*
X10871Y3023D01*
X10795D01*
X10846D02*
X10897Y2972D01*
X11049Y3124D02*
X10947D01*
Y3048D01*
X10998Y3073D01*
X11024D01*
X11049Y3048D01*
Y2997D01*
X11024Y2972D01*
X10973D01*
X10947Y2997D01*
X9322Y3353D02*
Y3200D01*
X9398D01*
X9423Y3226D01*
Y3327D01*
X9398Y3353D01*
X9322D01*
X9576D02*
X9474D01*
Y3277D01*
X9525Y3302D01*
X9550D01*
X9576Y3277D01*
Y3226D01*
X9550Y3200D01*
X9500D01*
X9474Y3226D01*
X7874Y559D02*
X7849Y584D01*
X7798D01*
X7772Y559D01*
Y457D01*
X7798Y432D01*
X7849D01*
X7874Y457D01*
X7925Y432D02*
Y584D01*
X8026Y432D01*
Y584D01*
X8077Y457D02*
X8102Y432D01*
X8153D01*
X8179Y457D01*
Y559D01*
X8153Y584D01*
X8102D01*
X8077Y559D01*
Y533D01*
X8102Y508D01*
X8179D01*
X7963Y1613D02*
Y1486D01*
X7988Y1460D01*
X8039D01*
X8064Y1486D01*
Y1613D01*
X8115Y1460D02*
X8166D01*
X8141D01*
Y1613D01*
X8115Y1587D01*
X8484Y2972D02*
Y3124D01*
X8560D01*
X8585Y3099D01*
Y3048D01*
X8560Y3023D01*
X8484D01*
X8534D02*
X8585Y2972D01*
X8712D02*
Y3124D01*
X8636Y3048D01*
X8738D01*
X7061Y3340D02*
Y3188D01*
X7137D01*
X7163Y3213D01*
Y3315D01*
X7137Y3340D01*
X7061D01*
X7290Y3188D02*
Y3340D01*
X7214Y3264D01*
X7315D01*
X5931Y2934D02*
Y3086D01*
X6007D01*
X6032Y3061D01*
Y3010D01*
X6007Y2984D01*
X5931D01*
X5982D02*
X6032Y2934D01*
X6083Y3061D02*
X6109Y3086D01*
X6159D01*
X6185Y3061D01*
Y3035D01*
X6159Y3010D01*
X6134D01*
X6159D01*
X6185Y2984D01*
Y2959D01*
X6159Y2934D01*
X6109D01*
X6083Y2959D01*
X4978Y5245D02*
X4826D01*
Y5321D01*
X4851Y5347D01*
X4902D01*
X4928Y5321D01*
Y5245D01*
Y5296D02*
X4978Y5347D01*
X4826Y5499D02*
Y5397D01*
X4978D01*
Y5499D01*
X4902Y5397D02*
Y5448D01*
X4851Y5702D02*
X4826Y5728D01*
Y5778D01*
X4851Y5804D01*
X4877D01*
X4902Y5778D01*
Y5753D01*
Y5778D01*
X4928Y5804D01*
X4953D01*
X4978Y5778D01*
Y5728D01*
X4953Y5702D01*
X6566Y5410D02*
Y5258D01*
X6464Y5410D01*
Y5258D01*
X6337D02*
X6388D01*
X6414Y5283D01*
Y5385D01*
X6388Y5410D01*
X6337D01*
X6312Y5385D01*
Y5283D01*
X6337Y5258D01*
X5347Y5410D02*
Y5258D01*
X5245Y5410D01*
Y5258D01*
X5093Y5283D02*
X5118Y5258D01*
X5169D01*
X5194Y5283D01*
Y5385D01*
X5169Y5410D01*
X5118D01*
X5093Y5385D01*
X5588Y3988D02*
X5613Y3962D01*
X5664D01*
X5690Y3988D01*
Y4089D01*
X5664Y4115D01*
X5613D01*
X5588Y4089D01*
X5461Y3962D02*
X5512D01*
X5537Y3988D01*
Y4089D01*
X5512Y4115D01*
X5461D01*
X5436Y4089D01*
Y3988D01*
X5461Y3962D01*
X5385Y4115D02*
Y3962D01*
X5334Y4013D01*
X5283Y3962D01*
Y4115D01*
X2680Y5220D02*
X2527D01*
Y5296D01*
X2553Y5321D01*
X2604D01*
X2629Y5296D01*
Y5220D01*
Y5270D02*
X2680Y5321D01*
X2527Y5474D02*
Y5372D01*
X2680D01*
Y5474D01*
X2604Y5372D02*
Y5423D01*
X2680Y5778D02*
Y5677D01*
X2578Y5778D01*
X2553D01*
X2527Y5753D01*
Y5702D01*
X2553Y5677D01*
X4280Y5410D02*
Y5258D01*
X4178Y5410D01*
Y5258D01*
X4051D02*
X4102D01*
X4128Y5283D01*
Y5385D01*
X4102Y5410D01*
X4051D01*
X4026Y5385D01*
Y5283D01*
X4051Y5258D01*
X3061Y5410D02*
Y5258D01*
X2959Y5410D01*
Y5258D01*
X2807Y5283D02*
X2832Y5258D01*
X2883D01*
X2908Y5283D01*
Y5385D01*
X2883Y5410D01*
X2832D01*
X2807Y5385D01*
X3302Y3988D02*
X3327Y3962D01*
X3378D01*
X3404Y3988D01*
Y4089D01*
X3378Y4115D01*
X3327D01*
X3302Y4089D01*
X3175Y3962D02*
X3226D01*
X3251Y3988D01*
Y4089D01*
X3226Y4115D01*
X3175D01*
X3150Y4089D01*
Y3988D01*
X3175Y3962D01*
X3099Y4115D02*
Y3962D01*
X3048Y4013D01*
X2997Y3962D01*
Y4115D01*
X406Y5271D02*
X254D01*
Y5347D01*
X279Y5372D01*
X330D01*
X356Y5347D01*
Y5271D01*
Y5321D02*
X406Y5372D01*
X254Y5524D02*
Y5423D01*
X406D01*
Y5524D01*
X330Y5423D02*
Y5474D01*
X406Y5728D02*
Y5778D01*
Y5753D01*
X254D01*
X279Y5728D01*
X1994Y5410D02*
Y5258D01*
X1892Y5410D01*
Y5258D01*
X1765D02*
X1816D01*
X1842Y5283D01*
Y5385D01*
X1816Y5410D01*
X1765D01*
X1740Y5385D01*
Y5283D01*
X1765Y5258D01*
X775Y5410D02*
Y5258D01*
X673Y5410D01*
Y5258D01*
X521Y5283D02*
X546Y5258D01*
X597D01*
X622Y5283D01*
Y5385D01*
X597Y5410D01*
X546D01*
X521Y5385D01*
X1016Y3988D02*
X1041Y3962D01*
X1092D01*
X1118Y3988D01*
Y4089D01*
X1092Y4115D01*
X1041D01*
X1016Y4089D01*
X889Y3962D02*
X940D01*
X965Y3988D01*
Y4089D01*
X940Y4115D01*
X889D01*
X864Y4089D01*
Y3988D01*
X889Y3962D01*
X813Y4115D02*
Y3962D01*
X762Y4013D01*
X711Y3962D01*
Y4115D01*
X3861Y3480D02*
Y3632D01*
X3937D01*
X3962Y3607D01*
Y3556D01*
X3937Y3531D01*
X3861D01*
X3912D02*
X3962Y3480D01*
X4115D02*
X4013D01*
X4115Y3581D01*
Y3607D01*
X4089Y3632D01*
X4039D01*
X4013Y3607D01*
X1435Y3480D02*
Y3632D01*
X1511D01*
X1537Y3607D01*
Y3556D01*
X1511Y3531D01*
X1435D01*
X1486D02*
X1537Y3480D01*
X1587D02*
X1638D01*
X1613D01*
Y3632D01*
X1587Y3607D01*
X4737Y3327D02*
Y3175D01*
X4813D01*
X4839Y3200D01*
Y3302D01*
X4813Y3327D01*
X4737D01*
X4889Y3302D02*
X4915Y3327D01*
X4966D01*
X4991Y3302D01*
Y3277D01*
X4966Y3251D01*
X4940D01*
X4966D01*
X4991Y3226D01*
Y3200D01*
X4966Y3175D01*
X4915D01*
X4889Y3200D01*
X2400Y3353D02*
Y3200D01*
X2476D01*
X2502Y3226D01*
Y3327D01*
X2476Y3353D01*
X2400D01*
X2654Y3200D02*
X2553D01*
X2654Y3302D01*
Y3327D01*
X2629Y3353D01*
X2578D01*
X2553Y3327D01*
X152Y3302D02*
Y3150D01*
X229D01*
X254Y3175D01*
Y3277D01*
X229Y3302D01*
X152D01*
X305Y3150D02*
X356D01*
X330D01*
Y3302D01*
X305Y3277D01*
X16507Y5931D02*
Y6083D01*
X16584D01*
X16609Y6058D01*
Y6007D01*
X16584Y5982D01*
X16507D01*
X16558D02*
X16609Y5931D01*
X16761Y6083D02*
X16660D01*
Y5931D01*
X16761D01*
X16660Y6007D02*
X16711D01*
X16965Y6058D02*
X16990Y6083D01*
X17041D01*
X17066Y6058D01*
Y6032D01*
X17041Y6007D01*
X17066Y5982D01*
Y5956D01*
X17041Y5931D01*
X16990D01*
X16965Y5956D01*
Y5982D01*
X16990Y6007D01*
X16965Y6032D01*
Y6058D01*
X16990Y6007D02*
X17041D01*
X17008Y6843D02*
X16982Y6868D01*
X16932D01*
X16906Y6843D01*
Y6741D01*
X16932Y6716D01*
X16982D01*
X17008Y6741D01*
X17059Y6716D02*
Y6868D01*
X17160Y6716D01*
Y6868D01*
X17211Y6843D02*
X17236Y6868D01*
X17287D01*
X17313Y6843D01*
Y6817D01*
X17287Y6792D01*
X17313Y6767D01*
Y6741D01*
X17287Y6716D01*
X17236D01*
X17211Y6741D01*
Y6767D01*
X17236Y6792D01*
X17211Y6817D01*
Y6843D01*
X17236Y6792D02*
X17287D01*
X14722Y6843D02*
X14696Y6868D01*
X14646D01*
X14620Y6843D01*
Y6741D01*
X14646Y6716D01*
X14696D01*
X14722Y6741D01*
X14773Y6716D02*
Y6868D01*
X14874Y6716D01*
Y6868D01*
X14925D02*
X15027D01*
Y6843D01*
X14925Y6741D01*
Y6716D01*
X12436Y6843D02*
X12410Y6868D01*
X12360D01*
X12334Y6843D01*
Y6741D01*
X12360Y6716D01*
X12410D01*
X12436Y6741D01*
X12487Y6716D02*
Y6868D01*
X12588Y6716D01*
Y6868D01*
X12741D02*
X12690Y6843D01*
X12639Y6792D01*
Y6741D01*
X12664Y6716D01*
X12715D01*
X12741Y6741D01*
Y6767D01*
X12715Y6792D01*
X12639D01*
X10150Y6843D02*
X10124Y6868D01*
X10074D01*
X10048Y6843D01*
Y6741D01*
X10074Y6716D01*
X10124D01*
X10150Y6741D01*
X10201Y6716D02*
Y6868D01*
X10302Y6716D01*
Y6868D01*
X10455D02*
X10353D01*
Y6792D01*
X10404Y6817D01*
X10429D01*
X10455Y6792D01*
Y6741D01*
X10429Y6716D01*
X10378D01*
X10353Y6741D01*
X7864Y6843D02*
X7838Y6868D01*
X7788D01*
X7762Y6843D01*
Y6741D01*
X7788Y6716D01*
X7838D01*
X7864Y6741D01*
X7915Y6716D02*
Y6868D01*
X8016Y6716D01*
Y6868D01*
X8143Y6716D02*
Y6868D01*
X8067Y6792D01*
X8169D01*
X5578Y6843D02*
X5552Y6868D01*
X5502D01*
X5476Y6843D01*
Y6741D01*
X5502Y6716D01*
X5552D01*
X5578Y6741D01*
X5629Y6716D02*
Y6868D01*
X5730Y6716D01*
Y6868D01*
X5781Y6843D02*
X5806Y6868D01*
X5857D01*
X5883Y6843D01*
Y6817D01*
X5857Y6792D01*
X5832D01*
X5857D01*
X5883Y6767D01*
Y6741D01*
X5857Y6716D01*
X5806D01*
X5781Y6741D01*
X3292Y6843D02*
X3266Y6868D01*
X3216D01*
X3190Y6843D01*
Y6741D01*
X3216Y6716D01*
X3266D01*
X3292Y6741D01*
X3343Y6716D02*
Y6868D01*
X3444Y6716D01*
Y6868D01*
X3597Y6716D02*
X3495D01*
X3597Y6817D01*
Y6843D01*
X3571Y6868D01*
X3520D01*
X3495Y6843D01*
X1006Y6792D02*
X980Y6817D01*
X930D01*
X904Y6792D01*
Y6690D01*
X930Y6665D01*
X980D01*
X1006Y6690D01*
X1057Y6665D02*
Y6817D01*
X1158Y6665D01*
Y6817D01*
X1209Y6665D02*
X1260D01*
X1234D01*
Y6817D01*
X1209Y6792D01*
X17996Y5410D02*
Y5258D01*
X17894Y5410D01*
Y5258D01*
X17767D02*
X17818D01*
X17844Y5283D01*
Y5385D01*
X17818Y5410D01*
X17767D01*
X17742Y5385D01*
Y5283D01*
X17767Y5258D01*
X16777Y5410D02*
Y5258D01*
X16675Y5410D01*
Y5258D01*
X16523Y5283D02*
X16548Y5258D01*
X16599D01*
X16624Y5283D01*
Y5385D01*
X16599Y5410D01*
X16548D01*
X16523Y5385D01*
X17018Y3988D02*
X17043Y3962D01*
X17094D01*
X17120Y3988D01*
Y4089D01*
X17094Y4115D01*
X17043D01*
X17018Y4089D01*
X16891Y3962D02*
X16942D01*
X16967Y3988D01*
Y4089D01*
X16942Y4115D01*
X16891D01*
X16866Y4089D01*
Y3988D01*
X16891Y3962D01*
X16815Y4115D02*
Y3962D01*
X16764Y4013D01*
X16713Y3962D01*
Y4115D01*
D26*
X12941Y1232D02*
G03*
X12941Y1232I-762J0D01*
G01*
X8353Y1473D02*
G03*
X8353Y1600I0J63D01*
G01*
X17374Y3302D02*
X17475D01*
X18085D02*
X18186D01*
X17475Y3404D02*
X18085D01*
X17475Y3200D02*
Y3404D01*
Y3200D02*
X18085D01*
Y3404D01*
X15685Y1524D02*
X15786D01*
X16396D02*
X16497D01*
X15786Y1626D02*
X16396D01*
X15786Y1422D02*
Y1626D01*
Y1422D02*
X16396D01*
Y1626D01*
X14948Y952D02*
X15202D01*
X14948D02*
Y1460D01*
X15202D01*
Y952D02*
Y1460D01*
X15799Y3302D02*
X15900D01*
X15088D02*
X15189D01*
Y3200D02*
X15799D01*
Y3404D01*
X15189D02*
X15799D01*
X15189Y3200D02*
Y3404D01*
X13462Y3302D02*
X13564D01*
X12751D02*
X12852D01*
Y3200D02*
X13462D01*
Y3404D01*
X12852D02*
X13462D01*
X12852Y3200D02*
Y3404D01*
X13716Y1854D02*
X14097D01*
Y711D02*
Y1854D01*
X13716Y711D02*
X14097D01*
X13716D02*
Y1854D01*
X11227Y3302D02*
X11328D01*
X10516D02*
X10617D01*
Y3200D02*
X11227D01*
Y3404D01*
X10617D02*
X11227D01*
X10617Y3200D02*
Y3404D01*
X8395Y419D02*
Y546D01*
Y419D02*
X10935D01*
Y546D01*
X8479Y80D02*
Y419D01*
Y80D02*
X8522Y38D01*
X8564Y80D01*
Y419D01*
X8733Y80D02*
Y419D01*
Y80D02*
X8776Y38D01*
X8818Y80D01*
Y419D01*
X8987Y80D02*
Y419D01*
Y80D02*
X9030Y38D01*
X9072Y80D01*
Y419D01*
X9241Y80D02*
Y419D01*
Y80D02*
X9284Y38D01*
X9326Y80D01*
Y419D01*
X9495Y80D02*
Y419D01*
Y80D02*
X9538Y38D01*
X9580Y80D01*
Y419D01*
X9749Y80D02*
Y419D01*
Y80D02*
X9792Y38D01*
X9834Y80D01*
Y419D01*
X10003Y80D02*
Y419D01*
Y80D02*
X10046Y38D01*
X10088Y80D01*
Y419D01*
X10257Y80D02*
Y419D01*
Y80D02*
X10300Y38D01*
X10342Y80D01*
Y419D01*
X10511Y80D02*
Y419D01*
Y80D02*
X10554Y38D01*
X10596Y80D01*
Y419D01*
X10765Y80D02*
Y419D01*
Y80D02*
X10808Y38D01*
X10850Y80D01*
Y419D01*
X8395Y546D02*
X8585D01*
X8395Y504D02*
X8437Y546D01*
X8585D02*
X10935D01*
X8353Y1272D02*
Y1473D01*
Y1600D02*
Y1802D01*
X10723Y1272D02*
Y1802D01*
X8353Y1272D02*
X10723D01*
X8353Y1802D02*
X10723D01*
X8941Y3302D02*
X9042D01*
X8230D02*
X8331D01*
Y3200D02*
X8941D01*
Y3404D01*
X8331D02*
X8941D01*
X8331Y3200D02*
Y3404D01*
X6655Y3302D02*
X6756D01*
X5944D02*
X6045D01*
Y3200D02*
X6655D01*
Y3404D01*
X6045D02*
X6655D01*
X6045Y3200D02*
Y3404D01*
X4318Y3302D02*
X4420D01*
X3607D02*
X3708D01*
Y3200D02*
X4318D01*
Y3404D01*
X3708D02*
X4318D01*
X3708Y3200D02*
Y3404D01*
X2032Y3302D02*
X2134D01*
X1321D02*
X1422D01*
Y3200D02*
X2032D01*
Y3404D01*
X1422D02*
X2032D01*
X1422Y3200D02*
Y3404D01*
X889Y6325D02*
X1651D01*
Y6579D01*
X889D02*
X1651D01*
X889Y6325D02*
Y6579D01*
X12319Y6375D02*
X13081D01*
Y6629D01*
X12319D02*
X13081D01*
X12319Y6375D02*
Y6629D01*
X3175Y6375D02*
X3937D01*
Y6629D01*
X3175D02*
X3937D01*
X3175Y6375D02*
Y6629D01*
X14605Y6375D02*
X15367D01*
Y6629D01*
X14605D02*
X15367D01*
X14605Y6375D02*
Y6629D01*
X5461Y6375D02*
X6223D01*
Y6629D01*
X5461D02*
X6223D01*
X5461Y6375D02*
Y6629D01*
X16891Y6375D02*
X17653D01*
Y6629D01*
X16891D02*
X17653D01*
X16891Y6375D02*
Y6629D01*
X7747Y6375D02*
X8509D01*
Y6629D01*
X7747D02*
X8509D01*
X7747Y6375D02*
Y6629D01*
X10033Y6375D02*
X10795D01*
Y6629D01*
X10033D02*
X10795D01*
X10033Y6375D02*
Y6629D01*
D27*
X16817Y3066D02*
X16904D01*
X16817Y3068D02*
Y3129D01*
X16755Y3067D02*
X16817Y3129D01*
X16755Y3067D02*
X16817Y3005D01*
Y3068D01*
X16754Y3005D02*
Y3129D01*
X16667Y3066D02*
X16754D01*
X15941Y475D02*
X16027D01*
X15941Y478D02*
Y538D01*
X15879Y476D02*
X15941Y538D01*
X15879Y476D02*
X15941Y414D01*
Y478D01*
X15878Y414D02*
Y538D01*
X15791Y475D02*
X15878D01*
X14582Y3066D02*
X14668D01*
X14582Y3068D02*
Y3129D01*
X14520Y3067D02*
X14582Y3129D01*
X14520Y3067D02*
X14582Y3005D01*
Y3068D01*
X14519Y3005D02*
Y3129D01*
X14432Y3066D02*
X14519D01*
X15240Y4432D02*
X15430D01*
X14541D02*
X14732D01*
X12954D02*
X13145D01*
X12256D02*
X12446D01*
X10668D02*
X10858D01*
X9969D02*
X10160D01*
X8382D02*
X8572D01*
X7683D02*
X7874D01*
X12245Y3066D02*
X12332D01*
X12245Y3068D02*
Y3129D01*
X12183Y3067D02*
X12245Y3129D01*
X12183Y3067D02*
X12245Y3005D01*
Y3068D01*
X12182Y3005D02*
Y3129D01*
X12095Y3066D02*
X12182D01*
X9959D02*
X10046D01*
X9959Y3068D02*
Y3129D01*
X9897Y3067D02*
X9959Y3129D01*
X9897Y3067D02*
X9959Y3005D01*
Y3068D01*
X9896Y3005D02*
Y3129D01*
X9809Y3066D02*
X9896D01*
X7673D02*
X7760D01*
X7673Y3068D02*
Y3129D01*
X7611Y3067D02*
X7673Y3129D01*
X7611Y3067D02*
X7673Y3005D01*
Y3068D01*
X7610Y3005D02*
Y3129D01*
X7523Y3066D02*
X7610D01*
X6096Y4432D02*
X6287D01*
X5397D02*
X5588D01*
X3810D02*
X4001D01*
X3111D02*
X3302D01*
X1524D02*
X1715D01*
X826D02*
X1016D01*
X5387Y3066D02*
X5474D01*
X5387Y3068D02*
Y3129D01*
X5325Y3067D02*
X5387Y3129D01*
X5325Y3067D02*
X5387Y3005D01*
Y3068D01*
X5324Y3005D02*
Y3129D01*
X5237Y3066D02*
X5324D01*
X3051D02*
X3137D01*
X3051Y3068D02*
Y3129D01*
X2988Y3067D02*
X3051Y3129D01*
X2988Y3067D02*
X3051Y3005D01*
Y3068D01*
X2987Y3005D02*
Y3129D01*
X2901Y3066D02*
X2987D01*
X765D02*
X851D01*
X765Y3068D02*
Y3129D01*
X702Y3067D02*
X765Y3129D01*
X702Y3067D02*
X765Y3005D01*
Y3068D01*
X701Y3005D02*
Y3129D01*
X615Y3066D02*
X701D01*
X17526Y4432D02*
X17716D01*
X16827D02*
X17018D01*
D28*
X12178Y2045D02*
Y2145D01*
X12128Y2095D02*
X12228D01*
M02*
