%FSLAX42Y42*%
%MOMM*%
G71*
G01*
G75*
%ADD10C,0.75*%
%ADD11C,0.25*%
%ADD12C,1.52*%
%ADD13C,1.40*%
%ADD14R,1.60X2.20*%
%ADD15O,1.60X2.20*%
%ADD16R,1.50X1.50*%
%ADD17C,1.50*%
%ADD18C,3.00*%
%ADD19C,2.80*%
%ADD20C,1.20*%
%ADD21R,1.20X1.20*%
%ADD22R,1.50X1.50*%
%ADD23R,1.50X1.50*%
%ADD24C,1.50*%
%ADD25C,2.00*%
%ADD26C,0.20*%
%ADD27C,0.25*%
%ADD28C,0.15*%
%ADD29C,1.73*%
%ADD30C,1.60*%
%ADD31R,1.80X2.40*%
%ADD32O,1.80X2.40*%
%ADD33R,1.70X1.70*%
%ADD34C,1.70*%
%ADD35C,3.20*%
%ADD36C,3.00*%
%ADD37C,1.40*%
%ADD38R,1.40X1.40*%
%ADD39R,1.70X1.70*%
%ADD40R,1.70X1.70*%
%ADD41C,1.70*%
%ADD42C,0.17*%
D28*
X18055Y6838D02*
X18355D01*
X18205Y6688D02*
Y6988D01*
X18055Y350D02*
X18355D01*
X18205Y200D02*
Y500D01*
X17229Y3302D02*
X17315D01*
X17272Y3260D02*
Y3344D01*
X18246Y3302D02*
X18330D01*
X18288Y3260D02*
Y3344D01*
X16854Y3256D02*
X16934D01*
X16894Y3216D02*
Y3296D01*
X16600Y3256D02*
X16680D01*
X16640Y3216D02*
Y3296D01*
X15977Y665D02*
X16057D01*
X16017Y625D02*
Y705D01*
X15723Y665D02*
X15803D01*
X15763Y625D02*
Y705D01*
X15540Y1524D02*
X15625D01*
X15583Y1481D02*
Y1566D01*
X16556Y1524D02*
X16641D01*
X16599Y1481D02*
Y1566D01*
X15030Y1334D02*
X15120D01*
X15075Y1289D02*
Y1378D01*
X15030Y1080D02*
X15120D01*
X15075Y1035D02*
Y1124D01*
X15960Y3302D02*
X16045D01*
X16002Y3260D02*
Y3344D01*
X14943Y3302D02*
X15029D01*
X14986Y3260D02*
Y3344D01*
X14618Y3256D02*
X14698D01*
X14658Y3216D02*
Y3296D01*
X14364Y3256D02*
X14444D01*
X14404Y3216D02*
Y3296D01*
X14926Y4167D02*
X15046D01*
X14986Y4107D02*
Y4227D01*
X14326Y4367D02*
X14446D01*
X14386Y4307D02*
Y4427D01*
X15526Y4367D02*
X15646D01*
X15586Y4307D02*
Y4427D01*
X14326Y5587D02*
X14446D01*
X14386Y5527D02*
Y5647D01*
X15526Y5587D02*
X15646D01*
X15586Y5527D02*
Y5647D01*
X13623Y3302D02*
X13708D01*
X13665Y3260D02*
Y3344D01*
X12607Y3302D02*
X12692D01*
X12649Y3260D02*
Y3344D01*
X12640Y4167D02*
X12760D01*
X12700Y4107D02*
Y4227D01*
X12040Y4367D02*
X12160D01*
X12100Y4307D02*
Y4427D01*
X13240Y4367D02*
X13360D01*
X13300Y4307D02*
Y4427D01*
X12040Y5587D02*
X12160D01*
X12100Y5527D02*
Y5647D01*
X13240Y5587D02*
X13360D01*
X13300Y5527D02*
Y5647D01*
X10354Y4167D02*
X10474D01*
X10414Y4107D02*
Y4227D01*
X9754Y4367D02*
X9874D01*
X9814Y4307D02*
Y4427D01*
X10954Y4367D02*
X11074D01*
X11014Y4307D02*
Y4427D01*
X9754Y5587D02*
X9874D01*
X9814Y5527D02*
Y5647D01*
X10954Y5587D02*
X11074D01*
X11014Y5527D02*
Y5647D01*
X8068Y4167D02*
X8188D01*
X8128Y4107D02*
Y4227D01*
X7468Y4367D02*
X7588D01*
X7528Y4307D02*
Y4427D01*
X8668Y4367D02*
X8788D01*
X8728Y4307D02*
Y4427D01*
X7468Y5587D02*
X7588D01*
X7528Y5527D02*
Y5647D01*
X8668Y5587D02*
X8788D01*
X8728Y5527D02*
Y5647D01*
X12282Y3256D02*
X12362D01*
X12322Y3216D02*
Y3296D01*
X12028Y3256D02*
X12108D01*
X12068Y3216D02*
Y3296D01*
X13871Y1664D02*
X13941D01*
X13907Y1629D02*
Y1699D01*
X13871Y902D02*
X13941D01*
X13907Y867D02*
Y937D01*
X12144Y1613D02*
X12214D01*
X12179Y1578D02*
Y1648D01*
X12144Y851D02*
X12214D01*
X12179Y816D02*
Y886D01*
X11388Y3302D02*
X11472D01*
X11430Y3260D02*
Y3344D01*
X10371Y3302D02*
X10457D01*
X10414Y3260D02*
Y3344D01*
X9996Y3256D02*
X10076D01*
X10036Y3216D02*
Y3296D01*
X9742Y3256D02*
X9822D01*
X9782Y3216D02*
Y3296D01*
X8477Y673D02*
X8567D01*
X8522Y628D02*
Y718D01*
X8731Y673D02*
X8821D01*
X8776Y628D02*
Y718D01*
X8985Y673D02*
X9075D01*
X9030Y628D02*
Y718D01*
X9239Y673D02*
X9329D01*
X9284Y628D02*
Y718D01*
X9493Y673D02*
X9583D01*
X9538Y628D02*
Y718D01*
X9747Y673D02*
X9837D01*
X9792Y628D02*
Y718D01*
X10001Y673D02*
X10091D01*
X10046Y628D02*
Y718D01*
X10255Y673D02*
X10345D01*
X10300Y628D02*
Y718D01*
X10509Y673D02*
X10599D01*
X10554Y628D02*
Y718D01*
X10763Y673D02*
X10853D01*
X10808Y628D02*
Y718D01*
X8477Y1156D02*
X8567D01*
X8522Y1111D02*
Y1201D01*
X8731Y1156D02*
X8821D01*
X8776Y1111D02*
Y1201D01*
X8985Y1156D02*
X9075D01*
X9030Y1111D02*
Y1201D01*
X9239Y1156D02*
X9329D01*
X9284Y1111D02*
Y1201D01*
X9493Y1156D02*
X9583D01*
X9538Y1111D02*
Y1201D01*
X9747Y1156D02*
X9837D01*
X9792Y1111D02*
Y1201D01*
X10001Y1156D02*
X10091D01*
X10046Y1111D02*
Y1201D01*
X10255Y1156D02*
X10345D01*
X10300Y1111D02*
Y1201D01*
X10509Y1156D02*
X10599D01*
X10554Y1111D02*
Y1201D01*
X8477Y1918D02*
X8567D01*
X8522Y1873D02*
Y1963D01*
X8731Y1918D02*
X8821D01*
X8776Y1873D02*
Y1963D01*
X8985Y1918D02*
X9075D01*
X9030Y1873D02*
Y1963D01*
X9239Y1918D02*
X9329D01*
X9284Y1873D02*
Y1963D01*
X9493Y1918D02*
X9583D01*
X9538Y1873D02*
Y1963D01*
X9747Y1918D02*
X9837D01*
X9792Y1873D02*
Y1963D01*
X10001Y1918D02*
X10091D01*
X10046Y1873D02*
Y1963D01*
X10255Y1918D02*
X10345D01*
X10300Y1873D02*
Y1963D01*
X10509Y1918D02*
X10599D01*
X10554Y1873D02*
Y1963D01*
X9101Y3302D02*
X9186D01*
X9144Y3260D02*
Y3344D01*
X8086Y3302D02*
X8171D01*
X8128Y3260D02*
Y3344D01*
X7710Y3256D02*
X7790D01*
X7750Y3216D02*
Y3296D01*
X7456Y3256D02*
X7536D01*
X7496Y3216D02*
Y3296D01*
X6815Y3302D02*
X6900D01*
X6858Y3260D02*
Y3344D01*
X5799Y3302D02*
X5885D01*
X5842Y3260D02*
Y3344D01*
X5782Y4167D02*
X5902D01*
X5842Y4107D02*
Y4227D01*
X5182Y4367D02*
X5302D01*
X5242Y4307D02*
Y4427D01*
X6382Y4367D02*
X6502D01*
X6442Y4307D02*
Y4427D01*
X5182Y5587D02*
X5302D01*
X5242Y5527D02*
Y5647D01*
X6382Y5587D02*
X6502D01*
X6442Y5527D02*
Y5647D01*
X3496Y4167D02*
X3616D01*
X3556Y4107D02*
Y4227D01*
X2896Y4367D02*
X3016D01*
X2956Y4307D02*
Y4427D01*
X4096Y4367D02*
X4216D01*
X4156Y4307D02*
Y4427D01*
X2896Y5587D02*
X3016D01*
X2956Y5527D02*
Y5647D01*
X4096Y5587D02*
X4216D01*
X4156Y5527D02*
Y5647D01*
X1210Y4167D02*
X1330D01*
X1270Y4107D02*
Y4227D01*
X610Y4367D02*
X730D01*
X670Y4307D02*
Y4427D01*
X1810Y4367D02*
X1930D01*
X1870Y4307D02*
Y4427D01*
X610Y5587D02*
X730D01*
X670Y5527D02*
Y5647D01*
X1810Y5587D02*
X1930D01*
X1870Y5527D02*
Y5647D01*
X4479Y3302D02*
X4564D01*
X4521Y3260D02*
Y3344D01*
X3463Y3302D02*
X3548D01*
X3505Y3260D02*
Y3344D01*
X2193Y3302D02*
X2278D01*
X2235Y3260D02*
Y3344D01*
X1177Y3302D02*
X1262D01*
X1219Y3260D02*
Y3344D01*
X5424Y3256D02*
X5504D01*
X5464Y3216D02*
Y3296D01*
X5170Y3256D02*
X5250D01*
X5210Y3216D02*
Y3296D01*
X3087Y3256D02*
X3167D01*
X3127Y3216D02*
Y3296D01*
X2833Y3256D02*
X2913D01*
X2873Y3216D02*
Y3296D01*
X801Y3256D02*
X881D01*
X841Y3216D02*
Y3296D01*
X547Y3256D02*
X627D01*
X587Y3216D02*
Y3296D01*
X200Y6838D02*
X500D01*
X350Y6688D02*
Y6988D01*
X200Y350D02*
X500D01*
X350Y200D02*
Y500D01*
X971Y6452D02*
X1061D01*
X1016Y6407D02*
Y6497D01*
X1225Y6452D02*
X1315D01*
X1270Y6407D02*
Y6497D01*
X1479Y6452D02*
X1569D01*
X1524Y6407D02*
Y6497D01*
X12401Y6502D02*
X12491D01*
X12446Y6457D02*
Y6547D01*
X12655Y6502D02*
X12745D01*
X12700Y6457D02*
Y6547D01*
X12909Y6502D02*
X12999D01*
X12954Y6457D02*
Y6547D01*
X3257Y6502D02*
X3347D01*
X3302Y6457D02*
Y6547D01*
X3511Y6502D02*
X3601D01*
X3556Y6457D02*
Y6547D01*
X3765Y6502D02*
X3855D01*
X3810Y6457D02*
Y6547D01*
X14687Y6502D02*
X14777D01*
X14732Y6457D02*
Y6547D01*
X14941Y6502D02*
X15031D01*
X14986Y6457D02*
Y6547D01*
X15195Y6502D02*
X15285D01*
X15240Y6457D02*
Y6547D01*
X5543Y6502D02*
X5633D01*
X5588Y6457D02*
Y6547D01*
X5797Y6502D02*
X5887D01*
X5842Y6457D02*
Y6547D01*
X6051Y6502D02*
X6141D01*
X6096Y6457D02*
Y6547D01*
X16973Y6502D02*
X17063D01*
X17018Y6457D02*
Y6547D01*
X17227Y6502D02*
X17317D01*
X17272Y6457D02*
Y6547D01*
X17481Y6502D02*
X17571D01*
X17526Y6457D02*
Y6547D01*
X7829Y6502D02*
X7919D01*
X7874Y6457D02*
Y6547D01*
X8083Y6502D02*
X8173D01*
X8128Y6457D02*
Y6547D01*
X8337Y6502D02*
X8427D01*
X8382Y6457D02*
Y6547D01*
X17212Y4167D02*
X17332D01*
X17272Y4107D02*
Y4227D01*
X16612Y4367D02*
X16732D01*
X16672Y4307D02*
Y4427D01*
X17812Y4367D02*
X17932D01*
X17872Y4307D02*
Y4427D01*
X16612Y5587D02*
X16732D01*
X16672Y5527D02*
Y5647D01*
X17812Y5587D02*
X17932D01*
X17872Y5527D02*
Y5647D01*
X10115Y6502D02*
X10205D01*
X10160Y6457D02*
Y6547D01*
X10369Y6502D02*
X10459D01*
X10414Y6457D02*
Y6547D01*
X10623Y6502D02*
X10713D01*
X10668Y6457D02*
Y6547D01*
M02*
