%FSLAX42Y42*%
%MOMM*%
G71*
G01*
G75*
%ADD10C,1.00*%
%ADD11C,0.70*%
%ADD12C,0.40*%
%ADD13C,1.52*%
%ADD14C,1.50*%
%ADD15R,1.50X1.50*%
%ADD16C,1.60*%
%ADD17R,1.60X1.60*%
%ADD18C,2.00*%
%ADD19R,2.00X2.00*%
%ADD20C,1.20*%
%ADD21C,1.40*%
%ADD22C,1.60*%
%ADD23R,1.20X1.20*%
%ADD24C,0.13*%
%ADD25C,0.20*%
%ADD26C,0.25*%
%ADD27C,0.15*%
%ADD28R,0.80X2.80*%
%ADD29C,1.73*%
%ADD30C,1.70*%
%ADD31R,1.70X1.70*%
%ADD32C,1.80*%
%ADD33R,1.80X1.80*%
%ADD34C,2.20*%
%ADD35R,2.20X2.20*%
%ADD36C,1.40*%
%ADD37C,1.60*%
%ADD38C,1.80*%
%ADD39R,1.40X1.40*%
%ADD40C,0.17*%
D24*
X315Y2650D02*
X665D01*
X490Y2475D02*
Y2825D01*
X6945Y2630D02*
X7295D01*
X7120Y2455D02*
Y2805D01*
X7100Y475D02*
X7450D01*
X7275Y300D02*
Y650D01*
X300Y475D02*
X650D01*
X475Y300D02*
Y650D01*
X621Y1231D02*
X711D01*
X666Y1186D02*
Y1276D01*
X621Y1485D02*
X711D01*
X666Y1440D02*
Y1530D01*
X4731Y1892D02*
X4831D01*
X4781Y1842D02*
Y1942D01*
X4477Y1892D02*
X4577D01*
X4527Y1842D02*
Y1942D01*
X4223Y1892D02*
X4323D01*
X4273Y1842D02*
Y1942D01*
X947Y1790D02*
X1067D01*
X1007Y1730D02*
Y1850D01*
X1993Y1790D02*
X2113D01*
X2053Y1730D02*
Y1850D01*
X1993Y1079D02*
X2113D01*
X2053Y1019D02*
Y1139D01*
X947Y1079D02*
X1067D01*
X1007Y1019D02*
Y1139D01*
X947Y520D02*
X1067D01*
X1007Y460D02*
Y580D01*
X1993Y520D02*
X2113D01*
X2053Y460D02*
Y580D01*
X1993Y2349D02*
X2113D01*
X2053Y2289D02*
Y2409D01*
X947Y2349D02*
X1067D01*
X1007Y2289D02*
Y2409D01*
X4111Y723D02*
X4181D01*
X4146Y688D02*
Y758D01*
X4873Y723D02*
X4943D01*
X4908Y688D02*
Y758D01*
X5348Y723D02*
X5433D01*
X5391Y681D02*
Y766D01*
X6364Y723D02*
X6449D01*
X6407Y681D02*
Y766D01*
X5741Y1859D02*
X5821D01*
X5781Y1819D02*
Y1899D01*
X5995Y1859D02*
X6075D01*
X6035Y1819D02*
Y1899D01*
X6828Y1554D02*
X6918D01*
X6873Y1509D02*
Y1599D01*
X6828Y1300D02*
X6918D01*
X6873Y1255D02*
Y1345D01*
X3019Y1155D02*
X3089D01*
X3054Y1120D02*
Y1190D01*
X3019Y1917D02*
X3089D01*
X3054Y1882D02*
Y1952D01*
M02*
