%FSLAX42Y42*%
%MOMM*%
G71*
G01*
G75*
G04 Layer_Color=2752767*
%ADD10C,1.00*%
%ADD11C,0.70*%
%ADD12C,0.40*%
%ADD13C,1.52*%
%ADD14C,1.50*%
%ADD15R,1.50X1.50*%
%ADD16C,1.60*%
%ADD17R,1.60X1.60*%
%ADD18C,2.00*%
%ADD19R,2.00X2.00*%
%ADD20C,1.20*%
%ADD21C,1.40*%
%ADD22C,1.60*%
%ADD23R,1.20X1.20*%
%ADD24C,0.13*%
%ADD25C,0.20*%
%ADD26C,0.25*%
%ADD27C,0.15*%
%ADD28R,0.80X2.80*%
%ADD29C,1.73*%
%ADD30C,1.70*%
%ADD31R,1.70X1.70*%
%ADD32C,1.80*%
%ADD33R,1.80X1.80*%
%ADD34C,2.20*%
%ADD35R,2.20X2.20*%
%ADD36C,1.40*%
%ADD37C,1.60*%
%ADD38C,1.80*%
%ADD39R,1.40X1.40*%
%ADD40C,0.17*%
D24*
X439Y2599D02*
Y2701D01*
X541D01*
Y2599D01*
X439D01*
X7069Y2579D02*
Y2681D01*
X7171D01*
Y2579D01*
X7069D01*
X7224Y424D02*
Y526D01*
X7326D01*
Y424D01*
X7224D01*
X424D02*
Y526D01*
X526D01*
Y424D01*
X424D01*
X4781Y1841D02*
X4730Y1942D01*
X4832D01*
X4781Y1841D01*
X4527D02*
X4476Y1942D01*
X4578D01*
X4527Y1841D01*
X4273D02*
X4222Y1942D01*
X4324D01*
X4273Y1841D01*
X1007Y1739D02*
X1032Y1765D01*
X1058D01*
X1032Y1790D01*
X1058Y1815D01*
X1032D01*
X1007Y1841D01*
X982Y1815D01*
X956D01*
X982Y1790D01*
X956Y1765D01*
X982D01*
X1007Y1739D01*
X2053D02*
X2078Y1765D01*
X2104D01*
X2078Y1790D01*
X2104Y1815D01*
X2078D01*
X2053Y1841D01*
X2028Y1815D01*
X2002D01*
X2028Y1790D01*
X2002Y1765D01*
X2028D01*
X2053Y1739D01*
Y1028D02*
X2078Y1053D01*
X2104D01*
X2078Y1079D01*
X2104Y1104D01*
X2078D01*
X2053Y1130D01*
X2028Y1104D01*
X2002D01*
X2028Y1079D01*
X2002Y1053D01*
X2028D01*
X2053Y1028D01*
X1007D02*
X1032Y1053D01*
X1058D01*
X1032Y1079D01*
X1058Y1104D01*
X1032D01*
X1007Y1130D01*
X982Y1104D01*
X956D01*
X982Y1079D01*
X956Y1053D01*
X982D01*
X1007Y1028D01*
Y469D02*
X1032Y495D01*
X1058D01*
X1032Y520D01*
X1058Y545D01*
X1032D01*
X1007Y571D01*
X982Y545D01*
X956D01*
X982Y520D01*
X956Y495D01*
X982D01*
X1007Y469D01*
X2053D02*
X2078Y495D01*
X2104D01*
X2078Y520D01*
X2104Y545D01*
X2078D01*
X2053Y571D01*
X2028Y545D01*
X2002D01*
X2028Y520D01*
X2002Y495D01*
X2028D01*
X2053Y469D01*
Y2298D02*
X2078Y2323D01*
X2104D01*
X2078Y2349D01*
X2104Y2374D01*
X2078D01*
X2053Y2400D01*
X2028Y2374D01*
X2002D01*
X2028Y2349D01*
X2002Y2323D01*
X2028D01*
X2053Y2298D01*
X1007D02*
X1032Y2323D01*
X1058D01*
X1032Y2349D01*
X1058Y2374D01*
X1032D01*
X1007Y2400D01*
X982Y2374D01*
X956D01*
X982Y2349D01*
X956Y2323D01*
X982D01*
X1007Y2298D01*
X4095Y672D02*
X4121Y723D01*
X4095Y774D01*
X4146Y749D01*
X4197Y774D01*
X4172Y723D01*
X4197Y672D01*
X4146Y698D01*
X4095Y672D01*
X4857D02*
X4883Y723D01*
X4857Y774D01*
X4908Y749D01*
X4959Y774D01*
X4934Y723D01*
X4959Y672D01*
X4908Y698D01*
X4857Y672D01*
X5365Y698D02*
Y672D01*
X5416D01*
Y698D01*
X5442D01*
Y749D01*
X5416D01*
Y774D01*
X5365D01*
Y749D01*
X5340D01*
Y698D01*
X5365D01*
X6381D02*
Y672D01*
X6432D01*
Y698D01*
X6458D01*
Y749D01*
X6432D01*
Y774D01*
X6381D01*
Y749D01*
X6356D01*
Y698D01*
X6381D01*
X5730Y1808D02*
X5756D01*
X5781Y1833D01*
X5806Y1808D01*
X5832D01*
Y1833D01*
X5806Y1859D01*
X5832Y1884D01*
Y1910D01*
X5806D01*
X5781Y1884D01*
X5756Y1910D01*
X5730D01*
Y1884D01*
X5756Y1859D01*
X5730Y1833D01*
Y1808D01*
X5984D02*
X6010D01*
X6035Y1833D01*
X6060Y1808D01*
X6086D01*
Y1833D01*
X6060Y1859D01*
X6086Y1884D01*
Y1910D01*
X6060D01*
X6035Y1884D01*
X6010Y1910D01*
X5984D01*
Y1884D01*
X6010Y1859D01*
X5984Y1833D01*
Y1808D01*
X3003Y1104D02*
X3029Y1155D01*
X3003Y1206D01*
X3054Y1180D01*
X3105Y1206D01*
X3079Y1155D01*
X3105Y1104D01*
X3054Y1130D01*
X3003Y1104D01*
Y1866D02*
X3029Y1917D01*
X3003Y1968D01*
X3054Y1942D01*
X3105Y1968D01*
X3079Y1917D01*
X3105Y1866D01*
X3054Y1892D01*
X3003Y1866D01*
D40*
X717Y1231D02*
G03*
X717Y1231I-51J0D01*
G01*
Y1485D02*
G03*
X717Y1485I-51J0D01*
G01*
X6924Y1554D02*
G03*
X6924Y1554I-51J0D01*
G01*
Y1300D02*
G03*
X6924Y1300I-51J0D01*
G01*
M02*
