%FSLAX42Y42*%
%MOMM*%
G71*
G01*
G75*
G04 Layer_Color=16711935*
%ADD10C,1.00*%
%ADD11C,0.70*%
%ADD12C,0.40*%
%ADD13C,1.52*%
%ADD14C,1.50*%
%ADD15R,1.50X1.50*%
%ADD16C,1.60*%
%ADD17R,1.60X1.60*%
%ADD18C,2.00*%
%ADD19R,2.00X2.00*%
%ADD20C,1.20*%
%ADD21C,1.40*%
%ADD22C,1.60*%
%ADD23R,1.20X1.20*%
%ADD24C,0.13*%
%ADD25C,0.20*%
%ADD26C,0.25*%
%ADD27C,0.15*%
%ADD28R,0.80X2.80*%
%ADD29C,1.73*%
%ADD30C,1.70*%
%ADD31R,1.70X1.70*%
%ADD32C,1.80*%
%ADD33R,1.80X1.80*%
%ADD34C,2.20*%
%ADD35R,2.20X2.20*%
%ADD36C,1.40*%
%ADD37C,1.60*%
%ADD38C,1.80*%
%ADD39R,1.40X1.40*%
D29*
X490Y2650D02*
D03*
X7120Y2630D02*
D03*
X7275Y475D02*
D03*
X475D02*
D03*
D30*
X666Y1231D02*
D03*
X6873Y1554D02*
D03*
D31*
X666Y1485D02*
D03*
X6873Y1300D02*
D03*
D32*
X4781Y1892D02*
D03*
X4527D02*
D03*
D33*
X4273D02*
D03*
D34*
X1007Y1790D02*
D03*
X2053Y1079D02*
D03*
X1007Y520D02*
D03*
X2053Y2349D02*
D03*
D35*
Y1790D02*
D03*
X1007Y1079D02*
D03*
X2053Y520D02*
D03*
X1007Y2349D02*
D03*
D36*
X4146Y723D02*
D03*
X4908D02*
D03*
X3054Y1155D02*
D03*
D37*
X5391Y723D02*
D03*
X6407D02*
D03*
D38*
X5781Y1859D02*
D03*
X6035D02*
D03*
D39*
X3054Y1917D02*
D03*
M02*
