%FSLAX42Y42*%
%MOMM*%
G71*
G01*
G75*
G04 Layer_Physical_Order=2*
G04 Layer_Color=16711680*
%ADD10C,0.25*%
%ADD11C,1.65*%
%ADD12C,1.52*%
%ADD13R,1.35X1.35*%
%ADD14C,1.35*%
%ADD15C,1.69*%
%ADD16R,1.69X1.69*%
%ADD17C,4.76*%
%ADD18P,1.52X8X292.5*%
%ADD19C,1.40*%
%ADD20O,2.00X1.00*%
%ADD21O,2.00X1.00*%
%ADD22C,1.50*%
%ADD23R,1.50X1.50*%
%ADD24C,2.00*%
%ADD25R,2.00X2.00*%
%ADD26O,4.50X2.00*%
%ADD27O,4.00X2.00*%
%ADD28O,2.00X4.00*%
%ADD29C,1.50*%
%ADD30C,1.60*%
%ADD31R,1.60X1.60*%
%ADD32C,1.60*%
%ADD33C,1.85*%
%ADD34R,1.85X1.85*%
D10*
X7328Y3696D02*
X7341Y3708D01*
X7023Y3696D02*
X7328D01*
X7023Y3950D02*
X7036Y3962D01*
X7341D01*
X7023Y4204D02*
X7036Y4216D01*
X7341D01*
X7328Y4458D02*
X7341Y4470D01*
X7023Y4458D02*
X7328D01*
Y4712D02*
X7341Y4724D01*
X7023Y4712D02*
X7328D01*
X7023Y4966D02*
X7328D01*
X7341Y4978D01*
X7328Y5220D02*
X7341Y5232D01*
X7023Y5220D02*
X7328D01*
X7023Y3442D02*
X8001D01*
X8103Y3543D01*
Y3708D01*
Y5232D02*
Y5486D01*
Y4978D02*
Y5232D01*
Y4724D02*
Y4978D01*
Y4470D02*
Y4724D01*
Y4216D02*
Y4470D01*
Y3962D02*
Y4216D01*
Y3708D02*
Y3962D01*
X7671Y5918D02*
X8103Y5486D01*
X7366Y5918D02*
X7671D01*
X7175Y5728D02*
X7366Y5918D01*
X7023Y5728D02*
X7175D01*
X7290Y6248D02*
X7366Y6172D01*
X4877Y6248D02*
X7290D01*
X4724Y6096D02*
X4877Y6248D01*
X7328Y5474D02*
X7341Y5486D01*
X7023Y5474D02*
X7328D01*
X3632Y5791D02*
Y5893D01*
X3378Y6147D02*
X3632Y5893D01*
X3886Y5842D02*
X3937Y5791D01*
X4115D01*
X4166Y5740D01*
X1042Y1680D02*
X1630Y1092D01*
X356Y1680D02*
X1042D01*
X1016Y2438D02*
X1372D01*
X758Y2180D02*
X1016Y2438D01*
X356Y2180D02*
X758D01*
X965Y2692D02*
X1372D01*
X918Y2646D02*
X965Y2692D01*
X356Y2646D02*
X918D01*
X1118Y2946D02*
X1372D01*
X918Y3146D02*
X1118Y2946D01*
X356Y3146D02*
X918D01*
X1114Y3458D02*
X1372Y3200D01*
X356Y3458D02*
X1114D01*
X1122Y3958D02*
X1372Y3708D01*
X356Y3958D02*
X1122D01*
X2461Y1092D02*
Y1272D01*
X1880Y1854D02*
X2461Y1272D01*
X1880Y1854D02*
Y2946D01*
X2134Y3200D01*
X1892Y3696D02*
Y4039D01*
Y3696D02*
X2134Y3454D01*
X2146Y3721D02*
Y4039D01*
X2134Y3708D02*
X2146Y3721D01*
X1372Y3454D02*
X1600D01*
X1676Y3531D01*
Y3759D01*
X1164Y4271D02*
X1676Y3759D01*
X356Y4271D02*
X1164D01*
X356Y4771D02*
X1693D01*
X2146Y4318D01*
Y4039D02*
Y4318D01*
X4978Y5436D02*
Y6096D01*
X4572Y5029D02*
X4978Y5436D01*
X2858Y5029D02*
X4572D01*
X2146Y4318D02*
X2858Y5029D01*
X1372Y1702D02*
Y1930D01*
Y1702D02*
X1907Y1166D01*
Y1092D02*
Y1166D01*
X2134Y2438D02*
X4750D01*
X5499Y3188D01*
X2134Y2692D02*
X4750D01*
X5499Y3442D01*
X4166Y5740D02*
X4597D01*
X4724Y5867D01*
Y6096D01*
X2752Y5338D02*
X2946D01*
X2616Y5474D02*
X2752Y5338D01*
X2616Y5474D02*
Y6147D01*
X1168Y5132D02*
X1293D01*
X1043D02*
X1168D01*
X1293D02*
X1310Y5116D01*
X2134D01*
X2601Y6162D02*
X2777Y6337D01*
X4229D02*
X4470Y6096D01*
X2777Y6337D02*
X4229D01*
X2134Y6162D02*
X2601D01*
X4978Y6096D02*
X5626D01*
X5994Y5728D01*
X7023D01*
X3810Y4699D02*
X4089Y4420D01*
X2972Y4699D02*
X3810D01*
X2692Y4420D02*
X2972Y4699D01*
X4420Y3338D02*
X4633D01*
X3660D02*
X4420D01*
X3353Y3501D02*
X3497D01*
X3103D02*
X3353D01*
X2692Y3912D02*
X3103Y3501D01*
X3497D02*
X3660Y3338D01*
X4633D02*
X4928Y3632D01*
X3327Y4013D02*
X3531Y3810D01*
X3327Y4013D02*
Y4420D01*
X4089D02*
X4125Y4384D01*
X4420D01*
X4430D01*
X4928Y3886D01*
Y3759D02*
Y3886D01*
Y3759D02*
X5118D01*
X5182Y3696D01*
X5499D01*
X4216Y1537D02*
Y1753D01*
X3886Y2083D02*
X4216Y1753D01*
Y826D02*
Y1029D01*
Y800D02*
Y826D01*
X3772Y381D02*
X4216Y826D01*
X1486Y381D02*
X3772D01*
X1351Y516D02*
X1486Y381D01*
X1351Y516D02*
Y813D01*
X1630Y1092D01*
X4216Y1029D02*
Y1537D01*
Y800D02*
X4407Y610D01*
X5423D01*
X5499Y686D01*
Y902D01*
X7023Y3670D02*
Y3696D01*
Y5220D02*
X7087D01*
X4953Y1039D02*
X5090D01*
X4480D02*
X4953D01*
X4470Y1029D02*
X4480Y1039D01*
X5090D02*
X5207Y1156D01*
X5499D01*
X5182Y1410D02*
X5499D01*
X5065Y1527D02*
X5182Y1410D01*
X4953Y1527D02*
X5065D01*
X4943Y1537D02*
X4953Y1527D01*
X4470Y1537D02*
X4943D01*
D11*
X7366Y5918D02*
D03*
Y6172D02*
D03*
X4216Y1029D02*
D03*
X4470D02*
D03*
X4216Y1537D02*
D03*
X4470D02*
D03*
X3531Y3810D02*
D03*
X3277D02*
D03*
X1892Y4039D02*
D03*
X2146D02*
D03*
D12*
X350Y6152D02*
D03*
Y350D02*
D03*
X8540Y6152D02*
D03*
Y350D02*
D03*
D13*
X356Y1680D02*
D03*
X356Y3146D02*
D03*
X2946Y5338D02*
D03*
X3353Y3001D02*
D03*
X356Y4271D02*
D03*
X356Y3958D02*
D03*
D14*
Y2180D02*
D03*
X356Y2646D02*
D03*
X2946Y5838D02*
D03*
X3353Y3501D02*
D03*
X356Y4771D02*
D03*
X356Y3458D02*
D03*
D15*
X1630Y1092D02*
D03*
X1769Y808D02*
D03*
X1907Y1092D02*
D03*
X2046Y808D02*
D03*
X2184Y1092D02*
D03*
X2323Y808D02*
D03*
X2461Y1092D02*
D03*
X2600Y808D02*
D03*
D16*
X2738Y1092D02*
D03*
D17*
X3434Y950D02*
D03*
X935D02*
D03*
D18*
X4953Y1527D02*
D03*
D19*
Y1039D02*
D03*
X3886Y2083D02*
D03*
X3124D02*
D03*
X3378Y6147D02*
D03*
X2616D02*
D03*
X3327Y4420D02*
D03*
X4089D02*
D03*
X7341Y3708D02*
D03*
X8103D02*
D03*
X7341Y3962D02*
D03*
X8103D02*
D03*
X7341Y4216D02*
D03*
X8103D02*
D03*
X7341Y4470D02*
D03*
X8103D02*
D03*
X7341Y4724D02*
D03*
X8103D02*
D03*
X7341Y4978D02*
D03*
X8103D02*
D03*
X7341Y5232D02*
D03*
X8103D02*
D03*
X7341Y5486D02*
D03*
X8103D02*
D03*
D20*
X4928Y3886D02*
D03*
Y3632D02*
D03*
D21*
Y3759D02*
D03*
D22*
X7023Y902D02*
D03*
Y1156D02*
D03*
Y1410D02*
D03*
Y1664D02*
D03*
Y1918D02*
D03*
Y2172D02*
D03*
Y2426D02*
D03*
Y2680D02*
D03*
Y2934D02*
D03*
Y3188D02*
D03*
Y3442D02*
D03*
Y3696D02*
D03*
Y3950D02*
D03*
Y4204D02*
D03*
Y4458D02*
D03*
Y4712D02*
D03*
Y4966D02*
D03*
Y5220D02*
D03*
Y5474D02*
D03*
Y5728D02*
D03*
X5499Y902D02*
D03*
Y1156D02*
D03*
Y1410D02*
D03*
Y1664D02*
D03*
Y1918D02*
D03*
Y2172D02*
D03*
Y2426D02*
D03*
Y2680D02*
D03*
Y2934D02*
D03*
Y3188D02*
D03*
Y3442D02*
D03*
Y3696D02*
D03*
Y3950D02*
D03*
Y4204D02*
D03*
Y4458D02*
D03*
Y4712D02*
D03*
Y4966D02*
D03*
Y5220D02*
D03*
Y5474D02*
D03*
X1293Y5132D02*
D03*
X1043D02*
D03*
X2134Y1930D02*
D03*
Y2184D02*
D03*
Y2438D02*
D03*
Y2692D02*
D03*
Y2946D02*
D03*
Y3200D02*
D03*
Y3454D02*
D03*
Y3708D02*
D03*
X1372Y1930D02*
D03*
Y2184D02*
D03*
Y2438D02*
D03*
Y2692D02*
D03*
Y2946D02*
D03*
Y3200D02*
D03*
Y3454D02*
D03*
D23*
X5499Y5728D02*
D03*
X1372Y3708D02*
D03*
D24*
X2134Y5116D02*
D03*
X4420Y4384D02*
D03*
D25*
X2134Y6162D02*
D03*
X4420Y3338D02*
D03*
D26*
X1168Y5132D02*
D03*
D27*
Y5752D02*
D03*
D28*
X668Y5452D02*
D03*
D29*
X1068Y5752D02*
D03*
X1268D02*
D03*
X668Y5352D02*
D03*
Y5552D02*
D03*
D30*
X4978Y6096D02*
D03*
X4724D02*
D03*
D31*
X4470D02*
D03*
D32*
X3886Y5791D02*
D03*
X3632D02*
D03*
D33*
X2692Y3912D02*
D03*
D34*
Y4420D02*
D03*
M02*
