%FSLAX42Y42*%
%MOMM*%
G71*
G01*
G75*
G04 Layer_Color=65535*
%ADD10C,0.25*%
%ADD11C,1.52*%
%ADD12C,1.65*%
%ADD13P,1.52X8X292.5*%
%ADD14C,1.40*%
%ADD15R,1.35X1.35*%
%ADD16C,1.35*%
%ADD17R,1.35X1.35*%
%ADD18C,1.50*%
%ADD19R,1.50X1.50*%
%ADD20C,1.60*%
%ADD21C,1.69*%
%ADD22R,1.69X1.69*%
%ADD23C,4.76*%
%ADD24C,1.50*%
%ADD25R,1.50X1.50*%
%ADD26C,1.60*%
%ADD27R,1.60X1.60*%
%ADD28C,2.00*%
%ADD29R,2.00X2.00*%
%ADD30O,2.00X1.00*%
%ADD31O,2.00X1.00*%
%ADD32R,2.00X2.00*%
%ADD33C,1.85*%
%ADD34R,1.85X1.85*%
%ADD35C,0.20*%
%ADD36C,0.13*%
%ADD37C,0.25*%
%ADD38C,0.15*%
%ADD39R,0.80X2.80*%
%ADD40R,2.80X0.80*%
D10*
X246Y2626D02*
X221Y2652D01*
X170D01*
X145Y2626D01*
Y2525D01*
X170Y2499D01*
X221D01*
X246Y2525D01*
X297Y2499D02*
X348D01*
X323D01*
Y2652D01*
X297Y2626D01*
X424D02*
X449Y2652D01*
X500D01*
X526Y2626D01*
Y2525D01*
X500Y2499D01*
X449D01*
X424Y2525D01*
Y2626D01*
X6137Y1402D02*
X6111Y1427D01*
X6060D01*
X6035Y1402D01*
Y1300D01*
X6060Y1275D01*
X6111D01*
X6137Y1300D01*
X6187Y1275D02*
X6238D01*
X6213D01*
Y1427D01*
X6187Y1402D01*
X2875Y3896D02*
X2850Y3922D01*
X2799D01*
X2774Y3896D01*
Y3795D01*
X2799Y3769D01*
X2850D01*
X2875Y3795D01*
X3028Y3769D02*
X2926D01*
X3028Y3871D01*
Y3896D01*
X3002Y3922D01*
X2951D01*
X2926Y3896D01*
X6137Y1910D02*
X6111Y1935D01*
X6060D01*
X6035Y1910D01*
Y1808D01*
X6060Y1783D01*
X6111D01*
X6137Y1808D01*
X6187Y1910D02*
X6213Y1935D01*
X6264D01*
X6289Y1910D01*
Y1885D01*
X6264Y1859D01*
X6238D01*
X6264D01*
X6289Y1834D01*
Y1808D01*
X6264Y1783D01*
X6213D01*
X6187Y1808D01*
X4806Y5268D02*
X4780Y5293D01*
X4729D01*
X4704Y5268D01*
Y5166D01*
X4729Y5141D01*
X4780D01*
X4806Y5166D01*
X4933Y5141D02*
Y5293D01*
X4856Y5217D01*
X4958D01*
X297Y4455D02*
X272Y4481D01*
X221D01*
X196Y4455D01*
Y4354D01*
X221Y4328D01*
X272D01*
X297Y4354D01*
X449Y4481D02*
X348D01*
Y4404D01*
X399Y4430D01*
X424D01*
X449Y4404D01*
Y4354D01*
X424Y4328D01*
X373D01*
X348Y4354D01*
X9787Y6271D02*
X9761Y6297D01*
X9710D01*
X9685Y6271D01*
Y6170D01*
X9710Y6144D01*
X9761D01*
X9787Y6170D01*
X9939Y6297D02*
X9888Y6271D01*
X9837Y6220D01*
Y6170D01*
X9863Y6144D01*
X9914D01*
X9939Y6170D01*
Y6195D01*
X9914Y6220D01*
X9837D01*
X1412Y4653D02*
X1387Y4679D01*
X1336D01*
X1311Y4653D01*
Y4552D01*
X1336Y4526D01*
X1387D01*
X1412Y4552D01*
X1463Y4679D02*
X1565D01*
Y4653D01*
X1463Y4552D01*
Y4526D01*
X284Y3541D02*
X259Y3566D01*
X208D01*
X183Y3541D01*
Y3439D01*
X208Y3414D01*
X259D01*
X284Y3439D01*
X335Y3541D02*
X361Y3566D01*
X411D01*
X437Y3541D01*
Y3515D01*
X411Y3490D01*
X437Y3465D01*
Y3439D01*
X411Y3414D01*
X361D01*
X335Y3439D01*
Y3465D01*
X361Y3490D01*
X335Y3515D01*
Y3541D01*
X361Y3490D02*
X411D01*
X1082Y5405D02*
X1057Y5430D01*
X1006D01*
X980Y5405D01*
Y5304D01*
X1006Y5278D01*
X1057D01*
X1082Y5304D01*
X1133D02*
X1158Y5278D01*
X1209D01*
X1234Y5304D01*
Y5405D01*
X1209Y5430D01*
X1158D01*
X1133Y5405D01*
Y5380D01*
X1158Y5354D01*
X1234D01*
X2123Y5110D02*
X2098Y5136D01*
X2047D01*
X2022Y5110D01*
Y5009D01*
X2047Y4983D01*
X2098D01*
X2123Y5009D01*
X2174Y4983D02*
X2225D01*
X2200D01*
Y5136D01*
X2174Y5110D01*
X2301Y4983D02*
X2352D01*
X2327D01*
Y5136D01*
X2301Y5110D01*
X4206Y4836D02*
Y4684D01*
X4282D01*
X4308Y4709D01*
Y4811D01*
X4282Y4836D01*
X4206D01*
X4359Y4684D02*
X4409D01*
X4384D01*
Y4836D01*
X4359Y4811D01*
X3724Y5878D02*
Y5725D01*
X3800D01*
X3825Y5751D01*
Y5852D01*
X3800Y5878D01*
X3724D01*
X3978Y5725D02*
X3876D01*
X3978Y5827D01*
Y5852D01*
X3952Y5878D01*
X3901D01*
X3876Y5852D01*
X6335Y5039D02*
Y4887D01*
X6411D01*
X6436Y4912D01*
Y5014D01*
X6411Y5039D01*
X6335D01*
X6487Y5014D02*
X6513Y5039D01*
X6563D01*
X6589Y5014D01*
Y4989D01*
X6563Y4963D01*
X6538D01*
X6563D01*
X6589Y4938D01*
Y4912D01*
X6563Y4887D01*
X6513D01*
X6487Y4912D01*
X1854Y1694D02*
X1803D01*
X1829D01*
Y1567D01*
X1803Y1542D01*
X1778D01*
X1753Y1567D01*
X1905Y1542D02*
X1956D01*
X1930D01*
Y1694D01*
X1905Y1669D01*
X3711Y5052D02*
Y5204D01*
X3787D01*
X3813Y5179D01*
Y5128D01*
X3787Y5103D01*
X3711D01*
X3863Y5052D02*
X3914D01*
X3889D01*
Y5204D01*
X3863Y5179D01*
X5659Y4145D02*
Y4247D01*
X5634Y4272D01*
X5583D01*
X5558Y4247D01*
Y4145D01*
X5583Y4120D01*
X5634D01*
X5608Y4171D02*
X5659Y4120D01*
X5634D02*
X5659Y4145D01*
X5710Y4120D02*
X5761D01*
X5735D01*
Y4272D01*
X5710Y4247D01*
X9571Y5281D02*
Y5433D01*
X9647D01*
X9672Y5408D01*
Y5357D01*
X9647Y5331D01*
X9571D01*
X9622D02*
X9672Y5281D01*
X9723D02*
X9774D01*
X9748D01*
Y5433D01*
X9723Y5408D01*
X9571Y4773D02*
Y4925D01*
X9647D01*
X9672Y4900D01*
Y4849D01*
X9647Y4823D01*
X9571D01*
X9622D02*
X9672Y4773D01*
X9825D02*
X9723D01*
X9825Y4874D01*
Y4900D01*
X9799Y4925D01*
X9748D01*
X9723Y4900D01*
X9571Y4265D02*
Y4417D01*
X9647D01*
X9672Y4392D01*
Y4341D01*
X9647Y4315D01*
X9571D01*
X9622D02*
X9672Y4265D01*
X9723Y4392D02*
X9748Y4417D01*
X9799D01*
X9825Y4392D01*
Y4366D01*
X9799Y4341D01*
X9774D01*
X9799D01*
X9825Y4315D01*
Y4290D01*
X9799Y4265D01*
X9748D01*
X9723Y4290D01*
X9571Y3807D02*
Y3960D01*
X9647D01*
X9672Y3934D01*
Y3884D01*
X9647Y3858D01*
X9571D01*
X9622D02*
X9672Y3807D01*
X9799D02*
Y3960D01*
X9723Y3884D01*
X9825D01*
X9596Y3350D02*
Y3503D01*
X9672D01*
X9698Y3477D01*
Y3426D01*
X9672Y3401D01*
X9596D01*
X9647D02*
X9698Y3350D01*
X9850Y3503D02*
X9748D01*
Y3426D01*
X9799Y3452D01*
X9825D01*
X9850Y3426D01*
Y3376D01*
X9825Y3350D01*
X9774D01*
X9748Y3376D01*
X9596Y2893D02*
Y3045D01*
X9672D01*
X9698Y3020D01*
Y2969D01*
X9672Y2944D01*
X9596D01*
X9647D02*
X9698Y2893D01*
X9850Y3045D02*
X9799Y3020D01*
X9748Y2969D01*
Y2918D01*
X9774Y2893D01*
X9825D01*
X9850Y2918D01*
Y2944D01*
X9825Y2969D01*
X9748D01*
X9596Y2385D02*
Y2537D01*
X9672D01*
X9698Y2512D01*
Y2461D01*
X9672Y2436D01*
X9596D01*
X9647D02*
X9698Y2385D01*
X9748Y2537D02*
X9850D01*
Y2512D01*
X9748Y2410D01*
Y2385D01*
X9596Y1928D02*
Y2080D01*
X9672D01*
X9698Y2055D01*
Y2004D01*
X9672Y1979D01*
X9596D01*
X9647D02*
X9698Y1928D01*
X9748Y2055D02*
X9774Y2080D01*
X9825D01*
X9850Y2055D01*
Y2029D01*
X9825Y2004D01*
X9850Y1979D01*
Y1953D01*
X9825Y1928D01*
X9774D01*
X9748Y1953D01*
Y1979D01*
X9774Y2004D01*
X9748Y2029D01*
Y2055D01*
X9774Y2004D02*
X9825D01*
X3152Y4920D02*
Y5072D01*
X3228D01*
X3254Y5047D01*
Y4996D01*
X3228Y4971D01*
X3152D01*
X3203D02*
X3254Y4920D01*
X3304Y4945D02*
X3330Y4920D01*
X3381D01*
X3406Y4945D01*
Y5047D01*
X3381Y5072D01*
X3330D01*
X3304Y5047D01*
Y5022D01*
X3330Y4996D01*
X3406D01*
X3627Y2271D02*
Y2423D01*
X3703D01*
X3729Y2398D01*
Y2347D01*
X3703Y2322D01*
X3627D01*
X3678D02*
X3729Y2271D01*
X3779D02*
X3830D01*
X3805D01*
Y2423D01*
X3779Y2398D01*
X3906D02*
X3932Y2423D01*
X3983D01*
X4008Y2398D01*
Y2296D01*
X3983Y2271D01*
X3932D01*
X3906Y2296D01*
Y2398D01*
X5591Y5631D02*
Y5784D01*
X5667D01*
X5692Y5758D01*
Y5707D01*
X5667Y5682D01*
X5591D01*
X5641D02*
X5692Y5631D01*
X5743D02*
X5794D01*
X5768D01*
Y5784D01*
X5743Y5758D01*
X5870Y5631D02*
X5921D01*
X5895D01*
Y5784D01*
X5870Y5758D01*
X2238Y4272D02*
X2212Y4298D01*
X2162D01*
X2136Y4272D01*
Y4247D01*
X2162Y4221D01*
X2212D01*
X2238Y4196D01*
Y4171D01*
X2212Y4145D01*
X2162D01*
X2136Y4171D01*
X2288Y4145D02*
X2339D01*
X2314D01*
Y4298D01*
X2288Y4272D01*
X7369Y6203D02*
Y6076D01*
X7394Y6050D01*
X7445D01*
X7470Y6076D01*
Y6203D01*
X7521Y6050D02*
X7572D01*
X7546D01*
Y6203D01*
X7521Y6177D01*
X6015Y6071D02*
Y5944D01*
X6040Y5918D01*
X6091D01*
X6116Y5944D01*
Y6071D01*
X6269Y5918D02*
X6167D01*
X6269Y6020D01*
Y6045D01*
X6243Y6071D01*
X6192D01*
X6167Y6045D01*
X841Y4285D02*
Y4158D01*
X866Y4133D01*
X917D01*
X942Y4158D01*
Y4285D01*
X993Y4260D02*
X1018Y4285D01*
X1069D01*
X1095Y4260D01*
Y4234D01*
X1069Y4209D01*
X1044D01*
X1069D01*
X1095Y4183D01*
Y4158D01*
X1069Y4133D01*
X1018D01*
X993Y4158D01*
X6665Y2090D02*
Y2065D01*
X6716Y2014D01*
X6767Y2065D01*
Y2090D01*
X6716Y2014D02*
Y1938D01*
X6817D02*
X6868D01*
X6843D01*
Y2090D01*
X6817Y2065D01*
D35*
X438Y1927D02*
G03*
X413Y2277I-108J169D01*
G01*
X247D02*
G03*
X223Y1927I83J-182D01*
G01*
X1114Y4884D02*
G03*
X1465Y4908I169J108D01*
G01*
Y5074D02*
G03*
X1114Y5099I-182J-83D01*
G01*
X261Y3179D02*
G03*
X285Y2828I108J-169D01*
G01*
X451D02*
G03*
X476Y3179I-83J182D01*
G01*
X273Y4093D02*
G03*
X298Y3742I108J-169D01*
G01*
X464D02*
G03*
X489Y4093I-83J182D01*
G01*
X1219Y4046D02*
G03*
X1346Y4046I63J0D01*
G01*
X4233Y12D02*
G03*
X4163Y-57I0J-69D01*
G01*
X4093Y-587D02*
G03*
X4163Y-518I0J69D01*
G01*
X2390Y-57D02*
G03*
X2321Y12I-69J0D01*
G01*
X2391Y-518D02*
G03*
X2460Y-587I69J0D01*
G01*
X4782Y4906D02*
G03*
X4806Y4555I108J-169D01*
G01*
X4973D02*
G03*
X4997Y4906I-83J182D01*
G01*
X3067Y3197D02*
G03*
X3042Y3547I-108J169D01*
G01*
X2876D02*
G03*
X2852Y3197I83J-182D01*
G01*
X5941Y3983D02*
G03*
X5941Y3587I-150J-198D01*
G01*
X8128Y5965D02*
G03*
X8255Y5965I63J0D01*
G01*
X2006Y4577D02*
X2516D01*
X2006Y4897D02*
X2516D01*
X2006Y4577D02*
Y4897D01*
X2516Y4577D02*
Y4897D01*
X1294Y4440D02*
X1804D01*
X1294Y4120D02*
X1804D01*
Y4440D01*
X1294Y4120D02*
Y4440D01*
X9670Y5549D02*
Y6059D01*
X9990Y5549D02*
Y6059D01*
X9670D02*
X9990D01*
X9670Y5549D02*
X9990D01*
X6019Y1697D02*
X6529D01*
X6019Y1377D02*
X6529D01*
Y1697D01*
X6019Y1377D02*
Y1697D01*
Y1189D02*
X6529D01*
X6019Y869D02*
X6529D01*
Y1189D01*
X6019Y869D02*
Y1189D01*
X6648Y1853D02*
X7118D01*
Y713D02*
Y1853D01*
X6648Y713D02*
X7118D01*
X6648D02*
Y1853D01*
X1548Y2076D02*
Y4046D01*
X1018Y2076D02*
Y4046D01*
Y2076D02*
X1548D01*
X1346Y4046D02*
X1548D01*
X1018D02*
X1219D01*
X1737Y313D02*
X4817D01*
X1737Y13D02*
Y1253D01*
X4817Y13D02*
Y1253D01*
X2460Y-587D02*
X4093D01*
X1737Y1253D02*
X4817D01*
X2577Y313D02*
Y1253D01*
X1737Y13D02*
X4817D01*
X3977Y313D02*
Y1253D01*
X4163Y-517D02*
Y-57D01*
X2390Y-517D02*
Y-57D01*
X5651Y5347D02*
Y5370D01*
Y4816D02*
Y4839D01*
Y5347D02*
X5728D01*
Y4839D02*
Y5347D01*
X5575Y4839D02*
X5728D01*
X5575D02*
Y5347D01*
X5651D01*
X3950Y4458D02*
Y4966D01*
X3696D02*
X3950D01*
X3696Y4458D02*
Y4966D01*
Y4458D02*
X3950D01*
X7030Y5343D02*
Y5833D01*
X6000Y5343D02*
Y5833D01*
Y5343D02*
X7030D01*
X6000Y5833D02*
X7030D01*
X6000Y5783D02*
X7030D01*
X4066Y5359D02*
Y5639D01*
X4596D01*
X4066Y5359D02*
X4596D01*
X3787Y2108D02*
X3810D01*
X4318D02*
X4341D01*
X3810D02*
Y2184D01*
X4318D01*
Y2032D02*
Y2184D01*
X3810Y2032D02*
X4318D01*
X3810D02*
Y2108D01*
X3213Y4105D02*
Y4128D01*
Y4635D02*
Y4658D01*
X3137Y4128D02*
X3213D01*
X3137D02*
Y4635D01*
X3289D01*
Y4128D02*
Y4635D01*
X3213Y4128D02*
X3289D01*
X5941Y3587D02*
Y3983D01*
X4191Y4240D02*
X4471D01*
Y3710D02*
Y4240D01*
X4191Y3710D02*
Y4240D01*
X2121Y3997D02*
X2375D01*
X2121Y3141D02*
Y3997D01*
Y3141D02*
X2375D01*
Y3997D01*
X8836Y665D02*
Y5965D01*
X7546Y665D02*
Y5965D01*
Y665D02*
X8836D01*
X8255Y5965D02*
X8836D01*
X7546D02*
X8128D01*
X10262Y5118D02*
X10284D01*
X9731D02*
X9754D01*
X10262Y5042D02*
Y5118D01*
X9754Y5042D02*
X10262D01*
X9754D02*
Y5194D01*
X10262D01*
Y5118D02*
Y5194D01*
Y4610D02*
X10284D01*
X9731D02*
X9754D01*
X10262Y4534D02*
Y4610D01*
X9754Y4534D02*
X10262D01*
X9754D02*
Y4686D01*
X10262D01*
Y4610D02*
Y4686D01*
Y4102D02*
X10284D01*
X9731D02*
X9754D01*
X10262Y4026D02*
Y4102D01*
X9754Y4026D02*
X10262D01*
X9754D02*
Y4178D01*
X10262D01*
Y4102D02*
Y4178D01*
Y3645D02*
X10284D01*
X9731D02*
X9754D01*
X10262Y3569D02*
Y3645D01*
X9754Y3569D02*
X10262D01*
X9754D02*
Y3721D01*
X10262D01*
Y3645D02*
Y3721D01*
X10287Y3188D02*
X10310D01*
X9756D02*
X9779D01*
X10287Y3111D02*
Y3188D01*
X9779Y3111D02*
X10287D01*
X9779D02*
Y3264D01*
X10287D01*
Y3188D02*
Y3264D01*
Y2731D02*
X10310D01*
X9756D02*
X9779D01*
X10287Y2654D02*
Y2731D01*
X9779Y2654D02*
X10287D01*
X9779D02*
Y2807D01*
X10287D01*
Y2731D02*
Y2807D01*
Y2223D02*
X10310D01*
X9756D02*
X9779D01*
X10287Y2146D02*
Y2223D01*
X9779Y2146D02*
X10287D01*
X9779D02*
Y2299D01*
X10287D01*
Y2223D02*
Y2299D01*
Y1765D02*
X10310D01*
X9756D02*
X9779D01*
X10287Y1689D02*
Y1765D01*
X9779Y1689D02*
X10287D01*
X9779D02*
Y1842D01*
X10287D01*
Y1765D02*
Y1842D01*
D36*
X7065Y4440D02*
G03*
X7065Y4730I0J145D01*
G01*
X6955Y4440D02*
X7065D01*
X6955Y4730D02*
X7065D01*
X6315Y4365D02*
X6955D01*
Y4805D01*
X6315D02*
X6955D01*
X6315Y4365D02*
Y4805D01*
D37*
X2260Y4045D02*
G03*
X2260Y4045I-12J0D01*
G01*
D38*
X3856Y1450D02*
X3806D01*
X3831D01*
Y1300D01*
X3856Y1325D01*
X2673Y1300D02*
X2773D01*
Y1375D01*
X2723Y1350D01*
X2698D01*
X2673Y1375D01*
Y1425D01*
X2698Y1450D01*
X2748D01*
X2773Y1425D01*
X2911Y485D02*
X2886Y510D01*
X2836D01*
X2811Y485D01*
Y385D01*
X2836Y360D01*
X2886D01*
X2911Y385D01*
Y410D01*
X2886Y435D01*
X2811D01*
X3642Y360D02*
X3692Y385D01*
X3742Y435D01*
Y485D01*
X3717Y510D01*
X3667D01*
X3642Y485D01*
Y460D01*
X3667Y435D01*
X3742D01*
X6719Y5270D02*
X6744Y5295D01*
X6794D01*
X6819Y5270D01*
Y5245D01*
X6794Y5220D01*
X6769D01*
X6794D01*
X6819Y5195D01*
Y5170D01*
X6794Y5145D01*
X6744D01*
X6719Y5170D01*
X6565Y5145D02*
X6465D01*
X6565Y5245D01*
Y5270D01*
X6540Y5295D01*
X6490D01*
X6465Y5270D01*
X6236Y5145D02*
X6286D01*
X6261D01*
Y5295D01*
X6236Y5270D01*
X6057Y3595D02*
X6107D01*
X6082D01*
Y3745D01*
X6057Y3720D01*
X6034Y3961D02*
X6059Y3986D01*
X6109D01*
X6134Y3961D01*
Y3936D01*
X6109Y3911D01*
X6084D01*
X6109D01*
X6134Y3886D01*
Y3861D01*
X6109Y3836D01*
X6059D01*
X6034Y3861D01*
D39*
X4566Y5499D02*
D03*
D40*
X4330Y3741D02*
D03*
M02*
