M48
;Layer_Color=9474304
;FILE_FORMAT=4:2
METRIC,LZ
;TYPE=PLATED
T1F00S00C0.80
T2F00S00C0.85
T3F00S00C0.90
T4F00S00C1.00
T5F00S00C1.09
T6F00S00C1.10
T7F00S00C1.20
T8F00S00C3.00
T9F00S00C3.26
%
T01
X004953Y001039
Y001527
X003353Y003001
X003353Y003501
X002946Y005338
X000356Y004771
X000356Y004271
X000356Y003958
X000356Y003458
X000356Y003146
X000356Y002646
X000356Y00218
X000356Y00168
X002946Y005838
X003632Y005791
X003886
T02
X008103Y003708
Y003962
Y004216
Y00447
Y004724
Y004978
Y005232
X007341
Y004978
Y004724
Y00447
Y004216
Y003962
Y003708
X004089Y00442
X003886Y002083
X003124
X003327Y00442
X003378Y006147
X002616
X007341Y005486
X008103
T03
X005499Y000902
Y001156
Y00141
X007023
Y001156
Y000902
Y001664
Y001918
Y002172
Y002426
Y00268
Y002934
Y003188
Y003442
Y003696
Y00395
Y004204
Y004458
Y004712
Y004966
Y00522
X005499
Y004966
Y004712
Y004458
Y004204
Y00395
Y003696
Y003442
Y003188
Y002934
Y00268
Y002426
Y002172
Y001918
Y001664
X004928Y003632
Y003759
Y003886
X002134Y003708
Y003454
Y0032
Y002946
Y002692
Y002438
Y002184
Y00193
X001372
Y002184
Y002438
Y002692
Y002946
Y0032
Y003454
Y003708
X005499Y005474
Y005728
X007023
Y005474
T04
X004216Y001029
X00447
Y001537
X004216
X003531Y00381
X003277
X002146Y004039
X001892
X001293Y005132
X001043
X000668Y005352
Y005552
X001068Y005752
X001268
X00447Y006096
X004724
X004978
X007366Y006172
Y005918
T05
X001769Y000808
X002046
X002323
X0026
X002738Y001092
X002461
X002184
X001907
X00163
T06
X002692Y003912
Y00442
T07
X00442Y003338
Y004384
X002134Y005116
Y006162
T08
X00035Y00035
X00854
X00035Y006152
X00854
T09
X000935Y00095
X003434
M30
