%FSLAX42Y42*%
%MOMM*%
G71*
G01*
G75*
G04 Layer_Color=16711935*
%ADD10C,0.25*%
%ADD11C,1.65*%
%ADD12C,1.52*%
%ADD13R,1.35X1.35*%
%ADD14C,1.35*%
%ADD15C,1.69*%
%ADD16R,1.69X1.69*%
%ADD17C,4.76*%
%ADD18P,1.52X8X292.5*%
%ADD19C,1.40*%
%ADD20O,2.00X1.00*%
%ADD21O,2.00X1.00*%
%ADD22C,1.50*%
%ADD23R,1.50X1.50*%
%ADD24C,2.00*%
%ADD25R,2.00X2.00*%
%ADD26O,4.50X2.00*%
%ADD27O,4.00X2.00*%
%ADD28O,2.00X4.00*%
%ADD29C,1.50*%
%ADD30C,1.60*%
%ADD31R,1.60X1.60*%
%ADD32C,1.60*%
%ADD33C,1.85*%
%ADD34R,1.85X1.85*%
%ADD35C,0.20*%
%ADD36C,0.13*%
%ADD37C,0.25*%
%ADD38C,0.15*%
%ADD39R,2.80X0.80*%
%ADD40C,1.85*%
%ADD41C,1.73*%
%ADD42R,1.55X1.55*%
%ADD43C,1.55*%
%ADD44C,1.89*%
%ADD45R,1.89X1.89*%
%ADD46C,4.96*%
%ADD47P,1.74X8X292.5*%
%ADD48C,1.60*%
%ADD49O,2.20X1.20*%
%ADD50O,2.20X1.20*%
%ADD51C,1.70*%
%ADD52R,1.70X1.70*%
%ADD53C,2.20*%
%ADD54R,2.20X2.20*%
%ADD55O,4.70X2.20*%
%ADD56O,4.20X2.20*%
%ADD57O,2.20X4.20*%
%ADD58C,1.70*%
%ADD59C,1.80*%
%ADD60R,1.80X1.80*%
%ADD61C,1.80*%
%ADD62C,2.05*%
%ADD63R,2.05X2.05*%
%ADD64C,1.00*%
%ADD65C,0.03*%
D10*
X0Y0D02*
X8890D01*
Y6502D01*
X0D02*
X8890D01*
X0Y0D02*
Y6502D01*
D64*
X1068Y5752D02*
X1268D01*
X668Y5352D02*
Y5552D01*
X1043Y5132D02*
X1293D01*
D65*
X1675Y6474D02*
X1705D01*
X1695Y6464D01*
X1705Y6454D01*
X1675D01*
Y6429D02*
Y6439D01*
X1680Y6444D01*
X1690D01*
X1695Y6439D01*
Y6429D01*
X1690Y6424D01*
X1685D01*
Y6444D01*
X1695Y6394D02*
Y6409D01*
X1690Y6414D01*
X1680D01*
X1675Y6409D01*
Y6394D01*
X1705Y6384D02*
X1675D01*
X1690D01*
X1695Y6379D01*
Y6369D01*
X1690Y6364D01*
X1675D01*
Y6304D02*
Y6324D01*
X1695Y6304D01*
X1700D01*
X1705Y6309D01*
Y6319D01*
X1700Y6324D01*
X1690Y6264D02*
Y6244D01*
X1700Y6184D02*
X1705Y6189D01*
Y6199D01*
X1700Y6204D01*
X1680D01*
X1675Y6199D01*
Y6189D01*
X1680Y6184D01*
X1675Y6174D02*
Y6164D01*
Y6169D01*
X1705D01*
Y6174D01*
X1675Y6134D02*
Y6144D01*
X1680Y6149D01*
X1690D01*
X1695Y6144D01*
Y6134D01*
X1690Y6129D01*
X1685D01*
Y6149D01*
X1695Y6114D02*
Y6104D01*
X1690Y6099D01*
X1675D01*
Y6114D01*
X1680Y6119D01*
X1685Y6114D01*
Y6099D01*
X1695Y6089D02*
X1675D01*
X1685D01*
X1690Y6084D01*
X1695Y6079D01*
Y6074D01*
Y6054D02*
Y6044D01*
X1690Y6039D01*
X1675D01*
Y6054D01*
X1680Y6059D01*
X1685Y6054D01*
Y6039D01*
X1675Y6029D02*
X1695D01*
Y6014D01*
X1690Y6009D01*
X1675D01*
X1695Y5979D02*
Y5994D01*
X1690Y5999D01*
X1680D01*
X1675Y5994D01*
Y5979D01*
Y5954D02*
Y5964D01*
X1680Y5969D01*
X1690D01*
X1695Y5964D01*
Y5954D01*
X1690Y5949D01*
X1685D01*
Y5969D01*
X1670Y5934D02*
X1675Y5929D01*
X1680D01*
Y5934D01*
X1675D01*
Y5929D01*
X1670Y5934D01*
X1665Y5939D01*
X1675Y5879D02*
X1695D01*
Y5874D01*
X1690Y5869D01*
X1675D01*
X1690D01*
X1695Y5864D01*
X1690Y5859D01*
X1675D01*
Y5844D02*
Y5834D01*
X1680Y5829D01*
X1690D01*
X1695Y5834D01*
Y5844D01*
X1690Y5849D01*
X1680D01*
X1675Y5844D01*
X1695Y5819D02*
X1675Y5809D01*
X1695Y5799D01*
X1675Y5774D02*
Y5784D01*
X1680Y5789D01*
X1690D01*
X1695Y5784D01*
Y5774D01*
X1690Y5769D01*
X1685D01*
Y5789D01*
X1700Y5724D02*
X1695D01*
Y5729D01*
Y5719D01*
Y5724D01*
X1680D01*
X1675Y5719D01*
Y5699D02*
Y5689D01*
X1680Y5684D01*
X1690D01*
X1695Y5689D01*
Y5699D01*
X1690Y5704D01*
X1680D01*
X1675Y5699D01*
Y5644D02*
Y5634D01*
Y5639D01*
X1695D01*
Y5644D01*
X1675Y5619D02*
X1695D01*
Y5604D01*
X1690Y5599D01*
X1675D01*
X1700Y5584D02*
X1695D01*
Y5589D01*
Y5579D01*
Y5584D01*
X1680D01*
X1675Y5579D01*
Y5549D02*
Y5559D01*
X1680Y5564D01*
X1690D01*
X1695Y5559D01*
Y5549D01*
X1690Y5544D01*
X1685D01*
Y5564D01*
X1695Y5534D02*
X1675D01*
X1685D01*
X1690Y5529D01*
X1695Y5524D01*
Y5519D01*
X1675Y5504D02*
X1695D01*
Y5489D01*
X1690Y5484D01*
X1675D01*
X1695Y5469D02*
Y5459D01*
X1690Y5454D01*
X1675D01*
Y5469D01*
X1680Y5474D01*
X1685Y5469D01*
Y5454D01*
X1675Y5444D02*
Y5434D01*
Y5439D01*
X1705D01*
Y5444D01*
X1665Y5389D02*
X1695D01*
Y5374D01*
X1690Y5369D01*
X1680D01*
X1675Y5374D01*
Y5389D01*
Y5359D02*
Y5349D01*
Y5354D01*
X1705D01*
Y5359D01*
X1695Y5329D02*
Y5319D01*
X1690Y5314D01*
X1675D01*
Y5329D01*
X1680Y5334D01*
X1685Y5329D01*
Y5314D01*
X1675Y5304D02*
X1695D01*
Y5289D01*
X1690Y5284D01*
X1675D01*
Y5259D02*
Y5269D01*
X1680Y5274D01*
X1690D01*
X1695Y5269D01*
Y5259D01*
X1690Y5254D01*
X1685D01*
Y5274D01*
X1675Y5214D02*
Y5204D01*
Y5209D01*
X1695D01*
Y5214D01*
X1675Y5184D02*
X1700D01*
X1690D01*
Y5189D01*
Y5179D01*
Y5184D01*
X1700D01*
X1705Y5179D01*
X1665Y5134D02*
X1695D01*
Y5119D01*
X1690Y5114D01*
X1680D01*
X1675Y5119D01*
Y5134D01*
X1695Y5104D02*
X1675D01*
X1685D01*
X1690Y5099D01*
X1695Y5094D01*
Y5089D01*
X1675Y5059D02*
Y5069D01*
X1680Y5074D01*
X1690D01*
X1695Y5069D01*
Y5059D01*
X1690Y5054D01*
X1685D01*
Y5074D01*
X1675Y5044D02*
Y5029D01*
X1680Y5024D01*
X1685Y5029D01*
Y5039D01*
X1690Y5044D01*
X1695Y5039D01*
Y5024D01*
X1675Y4999D02*
Y5009D01*
X1680Y5014D01*
X1690D01*
X1695Y5009D01*
Y4999D01*
X1690Y4994D01*
X1685D01*
Y5014D01*
X1675Y4984D02*
X1695D01*
Y4969D01*
X1690Y4964D01*
X1675D01*
X1700Y4949D02*
X1695D01*
Y4954D01*
Y4944D01*
Y4949D01*
X1680D01*
X1675Y4944D01*
X1725Y6474D02*
X1755D01*
X1745Y6464D01*
X1755Y6454D01*
X1725D01*
Y6429D02*
Y6439D01*
X1730Y6444D01*
X1740D01*
X1745Y6439D01*
Y6429D01*
X1740Y6424D01*
X1735D01*
Y6444D01*
X1745Y6394D02*
Y6409D01*
X1740Y6414D01*
X1730D01*
X1725Y6409D01*
Y6394D01*
X1755Y6384D02*
X1725D01*
X1740D01*
X1745Y6379D01*
Y6369D01*
X1740Y6364D01*
X1725D01*
Y6324D02*
Y6314D01*
Y6319D01*
X1755D01*
X1750Y6324D01*
X1740Y6269D02*
Y6249D01*
X1750Y6189D02*
X1755Y6194D01*
Y6204D01*
X1750Y6209D01*
X1745D01*
X1740Y6204D01*
Y6194D01*
X1735Y6189D01*
X1730D01*
X1725Y6194D01*
Y6204D01*
X1730Y6209D01*
X1725Y6179D02*
Y6169D01*
Y6174D01*
X1755D01*
Y6179D01*
X1725Y6149D02*
Y6139D01*
X1730Y6134D01*
X1740D01*
X1745Y6139D01*
Y6149D01*
X1740Y6154D01*
X1730D01*
X1725Y6149D01*
X1750Y6119D02*
X1745D01*
Y6124D01*
Y6114D01*
Y6119D01*
X1730D01*
X1725Y6114D01*
X1745Y6049D02*
Y6064D01*
X1740Y6069D01*
X1730D01*
X1725Y6064D01*
Y6049D01*
X1745Y6039D02*
X1730D01*
X1725Y6034D01*
Y6019D01*
X1745D01*
X1750Y6004D02*
X1745D01*
Y6009D01*
Y5999D01*
Y6004D01*
X1730D01*
X1725Y5999D01*
X1740Y5984D02*
Y5964D01*
X1725Y5949D02*
Y5939D01*
X1730Y5934D01*
X1740D01*
X1745Y5939D01*
Y5949D01*
X1740Y5954D01*
X1730D01*
X1725Y5949D01*
X1745Y5924D02*
X1730D01*
X1725Y5919D01*
Y5904D01*
X1745D01*
X1750Y5889D02*
X1745D01*
Y5894D01*
Y5884D01*
Y5889D01*
X1730D01*
X1725Y5884D01*
X1825Y6474D02*
X1845D01*
X1855Y6464D01*
X1845Y6454D01*
X1825D01*
X1840D01*
Y6474D01*
X1825Y6444D02*
Y6429D01*
X1830Y6424D01*
X1835Y6429D01*
Y6439D01*
X1840Y6444D01*
X1845Y6439D01*
Y6424D01*
X1825Y6414D02*
Y6399D01*
X1830Y6394D01*
X1835Y6399D01*
Y6409D01*
X1840Y6414D01*
X1845Y6409D01*
Y6394D01*
X1825Y6384D02*
Y6374D01*
Y6379D01*
X1845D01*
Y6384D01*
X1815Y6349D02*
Y6344D01*
X1820Y6339D01*
X1845D01*
Y6354D01*
X1840Y6359D01*
X1830D01*
X1825Y6354D01*
Y6339D01*
Y6329D02*
X1845D01*
Y6314D01*
X1840Y6309D01*
X1825D01*
Y6269D02*
X1855D01*
X1835D02*
X1845Y6254D01*
X1835Y6269D02*
X1825Y6254D01*
Y6224D02*
Y6234D01*
X1830Y6239D01*
X1840D01*
X1845Y6234D01*
Y6224D01*
X1840Y6219D01*
X1835D01*
Y6239D01*
X1825Y6194D02*
Y6204D01*
X1830Y6209D01*
X1840D01*
X1845Y6204D01*
Y6194D01*
X1840Y6189D01*
X1835D01*
Y6209D01*
X1815Y6179D02*
X1845D01*
Y6164D01*
X1840Y6159D01*
X1830D01*
X1825Y6164D01*
Y6179D01*
X1840Y6149D02*
Y6129D01*
X1825Y6114D02*
Y6104D01*
X1830Y6099D01*
X1840D01*
X1845Y6104D01*
Y6114D01*
X1840Y6119D01*
X1830D01*
X1825Y6114D01*
X1845Y6089D02*
X1830D01*
X1825Y6084D01*
Y6069D01*
X1845D01*
X1850Y6054D02*
X1845D01*
Y6059D01*
Y6049D01*
Y6054D01*
X1830D01*
X1825Y6049D01*
X1845Y5999D02*
Y5989D01*
X1840Y5984D01*
X1825D01*
Y5999D01*
X1830Y6004D01*
X1835Y5999D01*
Y5984D01*
X1845Y5974D02*
X1825D01*
X1835D01*
X1840Y5969D01*
X1845Y5964D01*
Y5959D01*
X1825Y5929D02*
Y5939D01*
X1830Y5944D01*
X1840D01*
X1845Y5939D01*
Y5929D01*
X1840Y5924D01*
X1835D01*
Y5944D01*
X1845Y5909D02*
Y5899D01*
X1840Y5894D01*
X1825D01*
Y5909D01*
X1830Y5914D01*
X1835Y5909D01*
Y5894D01*
X1850Y5849D02*
X1845D01*
Y5854D01*
Y5844D01*
Y5849D01*
X1830D01*
X1825Y5844D01*
Y5824D02*
Y5814D01*
X1830Y5809D01*
X1840D01*
X1845Y5814D01*
Y5824D01*
X1840Y5829D01*
X1830D01*
X1825Y5824D01*
Y5769D02*
Y5754D01*
X1830Y5749D01*
X1835Y5754D01*
Y5764D01*
X1840Y5769D01*
X1845Y5764D01*
Y5749D01*
X1825Y5739D02*
Y5729D01*
Y5734D01*
X1855D01*
Y5739D01*
X1825Y5709D02*
Y5699D01*
X1830Y5694D01*
X1840D01*
X1845Y5699D01*
Y5709D01*
X1840Y5714D01*
X1830D01*
X1825Y5709D01*
X1850Y5679D02*
X1845D01*
Y5684D01*
Y5674D01*
Y5679D01*
X1830D01*
X1825Y5674D01*
X1775Y6474D02*
X1795D01*
X1805Y6464D01*
X1795Y6454D01*
X1775D01*
X1790D01*
Y6474D01*
X1775Y6444D02*
Y6434D01*
Y6439D01*
X1805D01*
Y6444D01*
X1775Y6404D02*
Y6414D01*
X1780Y6419D01*
X1790D01*
X1795Y6414D01*
Y6404D01*
X1790Y6399D01*
X1785D01*
Y6419D01*
X1795Y6389D02*
X1775D01*
X1785D01*
X1790Y6384D01*
X1795Y6379D01*
Y6374D01*
X1800Y6354D02*
X1795D01*
Y6359D01*
Y6349D01*
Y6354D01*
X1780D01*
X1775Y6349D01*
Y6304D02*
X1805D01*
Y6289D01*
X1800Y6284D01*
X1790D01*
X1785Y6289D01*
Y6304D01*
X1800Y6254D02*
X1805Y6259D01*
Y6269D01*
X1800Y6274D01*
X1780D01*
X1775Y6269D01*
Y6259D01*
X1780Y6254D01*
X1805Y6244D02*
X1775D01*
Y6229D01*
X1780Y6224D01*
X1785D01*
X1790Y6229D01*
Y6244D01*
Y6229D01*
X1795Y6224D01*
X1800D01*
X1805Y6229D01*
Y6244D01*
X1775Y6179D02*
X1800D01*
X1790D01*
Y6184D01*
Y6174D01*
Y6179D01*
X1800D01*
X1805Y6174D01*
X1795Y6154D02*
Y6144D01*
X1790Y6139D01*
X1775D01*
Y6154D01*
X1780Y6159D01*
X1785Y6154D01*
Y6139D01*
X1805Y6129D02*
X1775D01*
Y6114D01*
X1780Y6109D01*
X1785D01*
X1790D01*
X1795Y6114D01*
Y6129D01*
X1800Y6064D02*
X1795D01*
Y6069D01*
Y6059D01*
Y6064D01*
X1780D01*
X1775Y6059D01*
Y6039D02*
Y6029D01*
X1780Y6024D01*
X1790D01*
X1795Y6029D01*
Y6039D01*
X1790Y6044D01*
X1780D01*
X1775Y6039D01*
Y5984D02*
Y5969D01*
X1780Y5964D01*
X1785Y5969D01*
Y5979D01*
X1790Y5984D01*
X1795Y5979D01*
Y5964D01*
X1775Y5954D02*
Y5944D01*
Y5949D01*
X1805D01*
Y5954D01*
X1775Y5924D02*
Y5914D01*
X1780Y5909D01*
X1790D01*
X1795Y5914D01*
Y5924D01*
X1790Y5929D01*
X1780D01*
X1775Y5924D01*
X1800Y5894D02*
X1795D01*
Y5899D01*
Y5889D01*
Y5894D01*
X1780D01*
X1775Y5889D01*
X1805Y5824D02*
X1775D01*
Y5839D01*
X1780Y5844D01*
X1790D01*
X1795Y5839D01*
Y5824D01*
X1775Y5799D02*
Y5809D01*
X1780Y5814D01*
X1790D01*
X1795Y5809D01*
Y5799D01*
X1790Y5794D01*
X1785D01*
Y5814D01*
X1800Y5779D02*
X1795D01*
Y5784D01*
Y5774D01*
Y5779D01*
X1780D01*
X1775Y5774D01*
X1795Y5754D02*
Y5744D01*
X1790Y5739D01*
X1775D01*
Y5754D01*
X1780Y5759D01*
X1785Y5754D01*
Y5739D01*
X1775Y5729D02*
Y5719D01*
Y5724D01*
X1795D01*
Y5729D01*
X1775Y5704D02*
Y5694D01*
Y5699D01*
X1805D01*
Y5704D01*
X1775Y5679D02*
Y5664D01*
X1780Y5659D01*
X1785Y5664D01*
Y5674D01*
X1790Y5679D01*
X1795Y5674D01*
Y5659D01*
M02*
