%FSLAX42Y42*%
%MOMM*%
G71*
G01*
G75*
G04 Layer_Color=16711935*
%ADD10C,0.25*%
%ADD11C,1.52*%
%ADD12C,1.65*%
%ADD13P,1.52X8X292.5*%
%ADD14C,1.40*%
%ADD15R,1.35X1.35*%
%ADD16C,1.35*%
%ADD17R,1.35X1.35*%
%ADD18C,1.50*%
%ADD19R,1.50X1.50*%
%ADD20C,1.60*%
%ADD21C,1.69*%
%ADD22R,1.69X1.69*%
%ADD23C,4.76*%
%ADD24C,1.50*%
%ADD25R,1.50X1.50*%
%ADD26C,1.60*%
%ADD27R,1.60X1.60*%
%ADD28C,2.00*%
%ADD29R,2.00X2.00*%
%ADD30O,2.00X1.00*%
%ADD31O,2.00X1.00*%
%ADD32R,2.00X2.00*%
%ADD33C,1.85*%
%ADD34R,1.85X1.85*%
%ADD35C,0.20*%
%ADD36C,0.13*%
%ADD37C,0.25*%
%ADD38C,0.15*%
%ADD39R,0.80X2.80*%
%ADD40R,2.80X0.80*%
%ADD41C,1.73*%
%ADD42C,1.85*%
%ADD43P,1.74X8X292.5*%
%ADD44C,1.60*%
%ADD45R,1.55X1.55*%
%ADD46C,1.55*%
%ADD47R,1.55X1.55*%
%ADD48C,1.70*%
%ADD49R,1.70X1.70*%
%ADD50C,1.80*%
%ADD51C,1.89*%
%ADD52R,1.89X1.89*%
%ADD53C,4.96*%
%ADD54C,1.70*%
%ADD55R,1.70X1.70*%
%ADD56C,1.80*%
%ADD57R,1.80X1.80*%
%ADD58C,2.20*%
%ADD59R,2.20X2.20*%
%ADD60O,2.20X1.20*%
%ADD61O,2.20X1.20*%
%ADD62R,2.20X2.20*%
%ADD63C,2.05*%
%ADD64R,2.05X2.05*%
D41*
X350Y6152D02*
D03*
X10470D02*
D03*
Y350D02*
D03*
X350D02*
D03*
D42*
X2388Y4737D02*
D03*
X2134D02*
D03*
X1422Y4280D02*
D03*
X1676D02*
D03*
X9830Y5677D02*
D03*
Y5931D02*
D03*
X6147Y1537D02*
D03*
X6401D02*
D03*
X6147Y1029D02*
D03*
X6401D02*
D03*
D43*
X6883Y1527D02*
D03*
D44*
Y1039D02*
D03*
X5651Y4712D02*
D03*
Y5474D02*
D03*
X4445Y2108D02*
D03*
X3683D02*
D03*
X3213Y4762D02*
D03*
Y4001D02*
D03*
X9627Y5118D02*
D03*
X10389D02*
D03*
X9627Y4610D02*
D03*
X10389D02*
D03*
X9627Y4102D02*
D03*
X10389D02*
D03*
X9627Y3645D02*
D03*
X10389D02*
D03*
X9652Y3188D02*
D03*
X10414D02*
D03*
X9652Y2731D02*
D03*
X10414D02*
D03*
X9652Y2223D02*
D03*
X10414D02*
D03*
X9652Y1765D02*
D03*
X10414D02*
D03*
D45*
X330Y1845D02*
D03*
X368Y3260D02*
D03*
X381Y4174D02*
D03*
X4890Y4987D02*
D03*
X2959Y3116D02*
D03*
D46*
X330Y2345D02*
D03*
X1533Y4991D02*
D03*
X368Y2760D02*
D03*
X381Y3674D02*
D03*
X4889Y4487D02*
D03*
X2959Y3615D02*
D03*
D47*
X1033Y4991D02*
D03*
D48*
X1664Y2172D02*
D03*
Y2426D02*
D03*
Y2680D02*
D03*
Y2934D02*
D03*
Y3188D02*
D03*
Y3442D02*
D03*
Y3696D02*
D03*
Y3950D02*
D03*
X902Y2172D02*
D03*
Y2426D02*
D03*
Y2680D02*
D03*
Y2934D02*
D03*
Y3188D02*
D03*
Y3442D02*
D03*
Y3696D02*
D03*
X8954Y902D02*
D03*
Y1156D02*
D03*
Y1410D02*
D03*
Y1664D02*
D03*
Y1918D02*
D03*
Y2172D02*
D03*
Y2426D02*
D03*
Y2680D02*
D03*
Y2934D02*
D03*
Y3188D02*
D03*
Y3442D02*
D03*
Y3696D02*
D03*
Y3950D02*
D03*
Y4204D02*
D03*
Y4458D02*
D03*
Y4712D02*
D03*
Y4966D02*
D03*
Y5220D02*
D03*
Y5474D02*
D03*
Y5728D02*
D03*
X7429Y902D02*
D03*
Y1156D02*
D03*
Y1410D02*
D03*
Y1664D02*
D03*
Y1918D02*
D03*
Y2172D02*
D03*
Y2426D02*
D03*
Y2680D02*
D03*
Y2934D02*
D03*
Y3188D02*
D03*
Y3442D02*
D03*
Y3696D02*
D03*
Y3950D02*
D03*
Y4204D02*
D03*
Y4458D02*
D03*
Y4712D02*
D03*
Y4966D02*
D03*
Y5220D02*
D03*
Y5474D02*
D03*
D49*
X902Y3950D02*
D03*
X7429Y5728D02*
D03*
D50*
X6515Y4458D02*
D03*
Y4712D02*
D03*
D51*
X2723Y1105D02*
D03*
X2861Y821D02*
D03*
X3000Y1105D02*
D03*
X3138Y821D02*
D03*
X3277Y1105D02*
D03*
X3415Y821D02*
D03*
X3554Y1105D02*
D03*
X3692Y821D02*
D03*
D52*
X3831Y1105D02*
D03*
D53*
X4526Y963D02*
D03*
X2027D02*
D03*
D54*
X3823Y4585D02*
D03*
D55*
Y4839D02*
D03*
D56*
X6769Y5563D02*
D03*
X6515D02*
D03*
D57*
X6261D02*
D03*
D58*
X3808Y5499D02*
D03*
X4331Y4498D02*
D03*
D59*
X4854Y5499D02*
D03*
D60*
X5791Y3912D02*
D03*
Y3658D02*
D03*
D61*
Y3785D02*
D03*
D62*
X4331Y3452D02*
D03*
D63*
X2248Y3315D02*
D03*
D64*
Y3823D02*
D03*
M02*
