%FSLAX42Y42*%
%MOMM*%
G71*
G01*
G75*
G04 Layer_Physical_Order=1*
G04 Layer_Color=255*
%ADD10C,0.25*%
%ADD11C,1.65*%
%ADD12C,1.52*%
%ADD13R,1.35X1.35*%
%ADD14C,1.35*%
%ADD15C,1.69*%
%ADD16R,1.69X1.69*%
%ADD17C,4.76*%
%ADD18P,1.52X8X292.5*%
%ADD19C,1.40*%
%ADD20O,2.00X1.00*%
%ADD21O,2.00X1.00*%
%ADD22C,1.50*%
%ADD23R,1.50X1.50*%
%ADD24C,2.00*%
%ADD25R,2.00X2.00*%
%ADD26O,4.50X2.00*%
%ADD27O,4.00X2.00*%
%ADD28O,2.00X4.00*%
%ADD29C,1.50*%
%ADD30C,1.60*%
%ADD31R,1.60X1.60*%
%ADD32C,1.60*%
%ADD33C,1.85*%
%ADD34R,1.85X1.85*%
D10*
X3886Y2083D02*
Y4077D01*
X3721Y4242D02*
X3886Y4077D01*
X3721Y4242D02*
Y4369D01*
Y5194D01*
X3581Y4229D02*
X3721Y4369D01*
X2083Y4229D02*
X3581D01*
X1892Y4039D02*
X2083Y4229D01*
X2184Y1092D02*
Y1219D01*
X1778Y1626D02*
X2184Y1219D01*
X1778Y1626D02*
Y2832D01*
X1892Y2946D01*
X2134D01*
X2959Y3492D02*
X3277Y3810D01*
X2959Y2756D02*
Y3492D01*
X2134Y1930D02*
X2959Y2756D01*
X2946Y5838D02*
X3408D01*
X2625D02*
X2946D01*
X3408D02*
X3886Y5359D01*
X2539Y5752D02*
X2625Y5838D01*
X1268Y5752D02*
X2539D01*
X1168D02*
X1268D01*
X1068D02*
X1168D01*
X668Y5452D02*
Y5552D01*
Y5352D02*
Y5452D01*
Y5352D02*
X1068Y5752D01*
X3886Y5359D02*
Y5791D01*
X3721Y5194D02*
X3886Y5359D01*
X3353Y2629D02*
Y3001D01*
X3124Y2400D02*
X3353Y2629D01*
X3124Y2083D02*
Y2400D01*
X5194Y241D02*
Y394D01*
X5245Y343D01*
X5296Y394D01*
Y241D01*
X5347Y394D02*
X5397D01*
X5372D01*
Y241D01*
X5347D01*
X5397D01*
X5575Y368D02*
X5550Y394D01*
X5499D01*
X5474Y368D01*
Y267D01*
X5499Y241D01*
X5550D01*
X5575Y267D01*
X5626Y241D02*
Y394D01*
X5702D01*
X5728Y368D01*
Y317D01*
X5702Y292D01*
X5626D01*
X5677D02*
X5728Y241D01*
X5854Y394D02*
X5804D01*
X5778Y368D01*
Y267D01*
X5804Y241D01*
X5854D01*
X5880Y267D01*
Y368D01*
X5854Y394D01*
X6032Y368D02*
X6007Y394D01*
X5956D01*
X5931Y368D01*
Y267D01*
X5956Y241D01*
X6007D01*
X6032Y267D01*
X6159Y394D02*
X6108D01*
X6083Y368D01*
Y267D01*
X6108Y241D01*
X6159D01*
X6185Y267D01*
Y368D01*
X6159Y394D01*
X6235Y241D02*
Y394D01*
X6337Y241D01*
Y394D01*
X6388D02*
X6489D01*
X6438D01*
Y241D01*
X6540D02*
Y394D01*
X6616D01*
X6642Y368D01*
Y317D01*
X6616Y292D01*
X6540D01*
X6591D02*
X6642Y241D01*
X6692Y394D02*
X6743D01*
X6718D01*
Y241D01*
X6692D01*
X6743D01*
X6819Y394D02*
Y241D01*
X6921D01*
X6972Y394D02*
Y241D01*
X7073D01*
X7226Y394D02*
X7124D01*
Y241D01*
X7226D01*
X7124Y317D02*
X7175D01*
X7276Y241D02*
Y394D01*
X7353D01*
X7378Y368D01*
Y317D01*
X7353Y292D01*
X7276D01*
X7327D02*
X7378Y241D01*
D11*
X7366Y5918D02*
D03*
Y6172D02*
D03*
X4216Y1029D02*
D03*
X4470D02*
D03*
X4216Y1537D02*
D03*
X4470D02*
D03*
X3531Y3810D02*
D03*
X3277D02*
D03*
X1892Y4039D02*
D03*
X2146D02*
D03*
D12*
X350Y6152D02*
D03*
Y350D02*
D03*
X8540Y6152D02*
D03*
Y350D02*
D03*
D13*
X356Y1680D02*
D03*
X356Y3146D02*
D03*
X2946Y5338D02*
D03*
X3353Y3001D02*
D03*
X356Y4271D02*
D03*
X356Y3958D02*
D03*
D14*
Y2180D02*
D03*
X356Y2646D02*
D03*
X2946Y5838D02*
D03*
X3353Y3501D02*
D03*
X356Y4771D02*
D03*
X356Y3458D02*
D03*
D15*
X1630Y1092D02*
D03*
X1769Y808D02*
D03*
X1907Y1092D02*
D03*
X2046Y808D02*
D03*
X2184Y1092D02*
D03*
X2323Y808D02*
D03*
X2461Y1092D02*
D03*
X2600Y808D02*
D03*
D16*
X2738Y1092D02*
D03*
D17*
X3434Y950D02*
D03*
X935D02*
D03*
D18*
X4953Y1527D02*
D03*
D19*
Y1039D02*
D03*
X3886Y2083D02*
D03*
X3124D02*
D03*
X3378Y6147D02*
D03*
X2616D02*
D03*
X3327Y4420D02*
D03*
X4089D02*
D03*
X7341Y3708D02*
D03*
X8103D02*
D03*
X7341Y3962D02*
D03*
X8103D02*
D03*
X7341Y4216D02*
D03*
X8103D02*
D03*
X7341Y4470D02*
D03*
X8103D02*
D03*
X7341Y4724D02*
D03*
X8103D02*
D03*
X7341Y4978D02*
D03*
X8103D02*
D03*
X7341Y5232D02*
D03*
X8103D02*
D03*
X7341Y5486D02*
D03*
X8103D02*
D03*
D20*
X4928Y3886D02*
D03*
Y3632D02*
D03*
D21*
Y3759D02*
D03*
D22*
X7023Y902D02*
D03*
Y1156D02*
D03*
Y1410D02*
D03*
Y1664D02*
D03*
Y1918D02*
D03*
Y2172D02*
D03*
Y2426D02*
D03*
Y2680D02*
D03*
Y2934D02*
D03*
Y3188D02*
D03*
Y3442D02*
D03*
Y3696D02*
D03*
Y3950D02*
D03*
Y4204D02*
D03*
Y4458D02*
D03*
Y4712D02*
D03*
Y4966D02*
D03*
Y5220D02*
D03*
Y5474D02*
D03*
Y5728D02*
D03*
X5499Y902D02*
D03*
Y1156D02*
D03*
Y1410D02*
D03*
Y1664D02*
D03*
Y1918D02*
D03*
Y2172D02*
D03*
Y2426D02*
D03*
Y2680D02*
D03*
Y2934D02*
D03*
Y3188D02*
D03*
Y3442D02*
D03*
Y3696D02*
D03*
Y3950D02*
D03*
Y4204D02*
D03*
Y4458D02*
D03*
Y4712D02*
D03*
Y4966D02*
D03*
Y5220D02*
D03*
Y5474D02*
D03*
X1293Y5132D02*
D03*
X1043D02*
D03*
X2134Y1930D02*
D03*
Y2184D02*
D03*
Y2438D02*
D03*
Y2692D02*
D03*
Y2946D02*
D03*
Y3200D02*
D03*
Y3454D02*
D03*
Y3708D02*
D03*
X1372Y1930D02*
D03*
Y2184D02*
D03*
Y2438D02*
D03*
Y2692D02*
D03*
Y2946D02*
D03*
Y3200D02*
D03*
Y3454D02*
D03*
D23*
X5499Y5728D02*
D03*
X1372Y3708D02*
D03*
D24*
X2134Y5116D02*
D03*
X4420Y4384D02*
D03*
D25*
X2134Y6162D02*
D03*
X4420Y3338D02*
D03*
D26*
X1168Y5132D02*
D03*
D27*
Y5752D02*
D03*
D28*
X668Y5452D02*
D03*
D29*
X1068Y5752D02*
D03*
X1268D02*
D03*
X668Y5352D02*
D03*
Y5552D02*
D03*
D30*
X4978Y6096D02*
D03*
X4724D02*
D03*
D31*
X4470D02*
D03*
D32*
X3886Y5791D02*
D03*
X3632D02*
D03*
D33*
X2692Y3912D02*
D03*
D34*
Y4420D02*
D03*
M02*
