M48
;Layer_Color=9474304
;FILE_FORMAT=4:2
METRIC,LZ
;TYPE=PLATED
T1F00S00C0.80
T2F00S00C0.85
T3F00S00C0.90
T4F00S00C1.00
T5F00S00C1.09
T6F00S00C1.10
T7F00S00C1.20
T8F00S00C3.00
T9F00S00C3.26
%
T01
X006883Y001039
Y001527
X006515Y004458
Y004712
X004889Y004487
X00489Y004987
X002959Y003615
X002959Y003116
X001533Y004991
X001033Y004991
X000381Y004174
X000381Y003674
X000368Y00326
X000368Y00276
X00033Y002345
X00033Y001845
T02
X009652Y001765
Y002223
Y002731
Y003188
X009627Y003645
Y004102
Y00461
Y005118
X010389
Y00461
Y004102
Y003645
X010414Y003188
Y002731
Y002223
Y001765
X005651Y004712
X003213Y004762
Y004001
X003683Y002108
X004445
X005651Y005474
T03
X007429Y000902
Y001156
Y00141
X008954
Y001156
Y000902
Y001664
Y001918
Y002172
Y002426
Y00268
Y002934
Y003188
Y003442
Y003696
Y00395
Y004204
Y004458
Y004712
Y004966
Y00522
X007429
Y004966
Y004712
Y004458
Y004204
Y00395
Y003696
Y003442
Y003188
Y002934
Y00268
Y002426
Y002172
Y001918
Y001664
X005791Y003658
Y003785
Y003912
X003823Y004585
Y004839
X001664Y00395
Y003696
Y003442
Y003188
Y002934
Y00268
Y002426
Y002172
X000902
Y002426
Y00268
Y002934
Y003188
Y003442
Y003696
Y00395
X007429Y005474
Y005728
X008954
Y005474
T04
X006147Y001029
X006401
Y001537
X006147
X002388Y004737
X002134
X001676Y00428
X001422
X006261Y005563
X006515
X006769
X00983Y005677
Y005931
T05
X002861Y000821
X003138
X003415
X003692
X003831Y001105
X003554
X003277
X003
X002723
T06
X002248Y003315
Y003823
T07
X004331Y003452
Y004498
X003808Y005499
X004854
T08
X00035Y00035
X01047
X00035Y006152
X01047
T09
X002027Y000963
X004526
M30
